<svg version="1.1" id="Total" xmlns="http://www.w3.org/2000/svg" xmlns:xlink="http://www.w3.org/1999/xlink" x="0px" y="0px"
	 viewBox="0 0 4595.68 6026.12" style="enable-background:new 0 0 4595.68 6026.12;" xml:space="preserve">
<style type="text/css">
	.plotinfo{fill:#8A8C8F;stroke:#221F1F;stroke-width:0.0209;stroke-miterlimit:10;}
	.candle_flower{opacity:0.4;fill:#221F1F;}
	.Cross{fill:#231F20;}
	.RIP{fill:#231F20;}
	.smallplot{fill:#8A8C8F;stroke:#221F1F;stroke-width:0.25;stroke-miterlimit:10;}
	.plotbound{opacity:0.3;fill:#949899;stroke:#231F20;stroke-width:0.0627;stroke-miterlimit:10;}
	.plotNA{fill:#231F20;stroke:#231F20;stroke-width:0.042;stroke-miterlimit:10;}
	.st0{display:none;}
	.st1{display:inline;fill:#6D6E71;}
	.st2{display:inline;fill:#585A5C;}
	.st3{display:inline;opacity:0.36;fill:none;stroke:#C8C1A6;stroke-width:6;stroke-miterlimit:10;}
	.st4{display:inline;}
	.st5{fill:#724344;stroke:#DCA484;stroke-width:1.3643;stroke-miterlimit:10;}
	.st6{fill:#8D5556;stroke:#DCA484;stroke-width:1.9419;stroke-miterlimit:10;}
	.st7{fill:#615A50;}
	.st8{fill:#6D645A;}
	.st9{fill:#615A50;stroke:#CDCFCF;stroke-width:0.5438;stroke-miterlimit:10;}
	.st10{display:inline;fill:none;stroke:#C8C1A6;stroke-width:2.7273;stroke-miterlimit:10;}
	.st11{fill:#264C24;}
	.st12{opacity:0.48;fill:#27B24B;stroke:#264C24;stroke-width:5;stroke-miterlimit:10;}
	.st13{display:inline;opacity:0.36;fill:#C8C1A6;}
	.st14{display:inline;fill:none;stroke:#C8C1A6;stroke-width:2.9476;stroke-miterlimit:10;}
	.st15{display:inline;opacity:0.48;fill:#27B24B;stroke:#264C24;stroke-width:5;stroke-miterlimit:10;}
	.st16{fill:#585A5C;}
	.st17{fill:#C8C1A6;}
	.st18{display:inline;fill:#585A5C;stroke:#C8C1A6;stroke-miterlimit:10;stroke-dasharray:7;}
	.st19{display:inline;fill:#C8C1A6;}
	.st20{display:inline;fill:#59B87B;}
	.st21{display:inline;opacity:0.48;fill:#27B24B;stroke:#264C24;stroke-width:4.8834;stroke-miterlimit:10;}
	.st22{fill:#6D6E71;}
	.st23{opacity:0.6;}
	.st24{fill:#FFFFFF;}
	.st25{fill:#8D5556;stroke:#DCA484;stroke-width:1.6902;stroke-miterlimit:10;}
	.st26{fill:#ED1C29;}
	.st27{fill:#FDB714;}
	.st28{fill:#FFFFFF;stroke:#221F1F;stroke-width:0.0209;stroke-miterlimit:10;}
	.st29{fill:#DBDCDD;stroke:#221F1F;stroke-width:0.0209;stroke-miterlimit:10;}
	.st30{fill:none;stroke:#221F1F;stroke-width:0.0209;stroke-miterlimit:10;}
	.st31{fill:#797C7E;stroke:#221F1F;stroke-width:0.0209;stroke-miterlimit:10;}
	.st32{fill:#FFFFFF;stroke:#221F1F;stroke-width:0.0139;stroke-miterlimit:10;}
	.st33{fill:#DBDCDD;stroke:#221F1F;stroke-width:0.0139;stroke-miterlimit:10;}
	.st34{fill:none;stroke:#221F1F;stroke-width:0.0139;stroke-miterlimit:10;}
	.st35{fill:#8A8C8F;stroke:#221F1F;stroke-width:0.0139;stroke-miterlimit:10;}
	.st36{fill:#FFFFFF;stroke:#221F1F;stroke-width:0.0192;stroke-miterlimit:10;}
	.st37{fill:#DBDCDD;stroke:#221F1F;stroke-width:0.0192;stroke-miterlimit:10;}
	.st38{fill:none;stroke:#221F1F;stroke-width:0.0192;stroke-miterlimit:10;}
	.st39{fill:#231F20;stroke:#231F20;stroke-width:0.0627;stroke-miterlimit:10;}
	.st40{fill:#8A8C8F;}
	.st41{fill:none;stroke:#221F1F;stroke-width:0.25;stroke-miterlimit:10;}
</style>
<g id="BACK"><rect width="4597.9" height="6026.12" fill="#6d6e71"/><polygon points="283.2 1991.4 283.2 1966.9 247.5 2039.5 283.2 2112.1 283.2 2087.6 297.3 2087.7 297.3 2039.5 297.3 1991.3 283.2 1991.4" fill="#585a5c"/><polygon points="4374.1 1991.4 4374.1 1966.9 4409.7 2039.5 4374.1 2112.1 4374.1 2087.6 4359.9 2087.7 4359.9 2039.5 4359.9 1991.3 4374.1 1991.4" fill="#585a5c"/><polygon points="283.2 3684.5 283.2 3659.9 247.5 3732.6 283.2 3805.2 283.2 3780.6 297.3 3780.8 297.3 3732.6 297.3 3684.4 283.2 3684.5" fill="#585a5c"/><polygon points="4374.1 3684.5 4374.1 3659.9 4409.7 3732.6 4374.1 3805.2 4374.1 3780.6 4359.9 3780.8 4359.9 3732.6 4359.9 3684.4 4374.1 3684.5" fill="#585a5c"/><rect x="1942.9" y="3837.3" width="667.9" height="1646.5" rx="89.9" fill="none" stroke="#c8c1a6" stroke-miterlimit="10" stroke-width="6" opacity="0.36"/><rect x="2324.5" y="5414.3" width="231.1" height="138.88" fill="#724344" stroke="#dca484" stroke-miterlimit="10" stroke-width="1.36"/><polygon points="2324.5 5553.2 2387.9 5483.8 2489.8 5483.8 2555.6 5553.2 2324.5 5553.2" fill="#724344" stroke="#dca484" stroke-miterlimit="10" stroke-width="1.36"/><path d="M2324.5,5414.3c3.3,0,63.4,69.5,63.4,69.5l-63.4,69.4Z" fill="#724344" stroke="#dca484" stroke-miterlimit="10" stroke-width="1.36"/><polygon points="2555.6 5414.3 2489.8 5483.8 2555.6 5553.2 2555.6 5414.3" fill="#724344" stroke="#dca484" stroke-miterlimit="10" stroke-width="1.36"/><rect x="1994.9" y="5414.3" width="231.1" height="138.88" fill="#724344" stroke="#dca484" stroke-miterlimit="10" stroke-width="1.36"/><polygon points="1994.9 5553.2 2058.3 5483.8 2160.2 5483.8 2226 5553.2 1994.9 5553.2" fill="#724344" stroke="#dca484" stroke-miterlimit="10" stroke-width="1.36"/><path d="M1994.9,5414.3c3.3,0,63.4,69.5,63.4,69.5l-63.4,69.4Z" fill="#724344" stroke="#dca484" stroke-miterlimit="10" stroke-width="1.36"/><polygon points="2226 5414.3 2160.2 5483.8 2226 5553.2 2226 5414.3" fill="#724344" stroke="#dca484" stroke-miterlimit="10" stroke-width="1.36"/><rect x="2110.4" y="5384.9" width="329" height="197.69" fill="#8d5556" stroke="#dca484" stroke-miterlimit="10" stroke-width="1.94"/><polygon points="2110.4 5582.6 2200.7 5483.8 2345.8 5483.8 2439.4 5582.6 2110.4 5582.6" fill="#8d5556" stroke="#dca484" stroke-miterlimit="10" stroke-width="1.94"/><path d="M2110.4,5384.9c4.7,0,90.3,98.9,90.3,98.9l-90.3,98.8Z" fill="#8d5556" stroke="#dca484" stroke-miterlimit="10" stroke-width="1.94"/><polygon points="2439.4 5384.9 2345.8 5483.8 2439.4 5582.6 2439.4 5384.9" fill="#8d5556" stroke="#dca484" stroke-miterlimit="10" stroke-width="1.94"/><rect x="2132.1" y="3885.9" width="286.4" height="521.81" fill="#615a50"/><rect x="2132.1" y="3885.9" width="183" height="521.81" fill="#6d645a"/><line x1="2418.4" y1="3900.5" x2="2132.1" y2="3900.5" fill="#615a50" stroke="#cdcfcf" stroke-miterlimit="10" stroke-width="0.54"/><line x1="2418.4" y1="3916.2" x2="2132.1" y2="3916.2" fill="#615a50" stroke="#cdcfcf" stroke-miterlimit="10" stroke-width="0.54"/><line x1="2418.4" y1="3932" x2="2132.1" y2="3932" fill="#615a50" stroke="#cdcfcf" stroke-miterlimit="10" stroke-width="0.54"/><line x1="2418.4" y1="3947.7" x2="2132.1" y2="3947.7" fill="#615a50" stroke="#cdcfcf" stroke-miterlimit="10" stroke-width="0.54"/><line x1="2418.4" y1="3963.5" x2="2132.1" y2="3963.5" fill="#615a50" stroke="#cdcfcf" stroke-miterlimit="10" stroke-width="0.54"/><line x1="2418.4" y1="3979.2" x2="2132.1" y2="3979.2" fill="#615a50" stroke="#cdcfcf" stroke-miterlimit="10" stroke-width="0.54"/><line x1="2418.4" y1="3994.9" x2="2132.1" y2="3994.9" fill="#615a50" stroke="#cdcfcf" stroke-miterlimit="10" stroke-width="0.54"/><line x1="2418.4" y1="4010.7" x2="2132.1" y2="4010.7" fill="#615a50" stroke="#cdcfcf" stroke-miterlimit="10" stroke-width="0.54"/><line x1="2418.4" y1="4026.4" x2="2132.1" y2="4026.4" fill="#615a50" stroke="#cdcfcf" stroke-miterlimit="10" stroke-width="0.54"/><line x1="2418.4" y1="4042.2" x2="2132.1" y2="4042.2" fill="#615a50" stroke="#cdcfcf" stroke-miterlimit="10" stroke-width="0.54"/><line x1="2418.4" y1="4057.9" x2="2132.1" y2="4057.9" fill="#615a50" stroke="#cdcfcf" stroke-miterlimit="10" stroke-width="0.54"/><line x1="2418.4" y1="4073.7" x2="2132.1" y2="4073.7" fill="#615a50" stroke="#cdcfcf" stroke-miterlimit="10" stroke-width="0.54"/><line x1="2418.4" y1="4089.4" x2="2132.1" y2="4089.4" fill="#615a50" stroke="#cdcfcf" stroke-miterlimit="10" stroke-width="0.54"/><line x1="2418.4" y1="4105.1" x2="2132.1" y2="4105.1" fill="#615a50" stroke="#cdcfcf" stroke-miterlimit="10" stroke-width="0.54"/><line x1="2418.4" y1="4120.9" x2="2132.1" y2="4120.9" fill="#615a50" stroke="#cdcfcf" stroke-miterlimit="10" stroke-width="0.54"/><line x1="2418.4" y1="4136.6" x2="2132.1" y2="4136.6" fill="#615a50" stroke="#cdcfcf" stroke-miterlimit="10" stroke-width="0.54"/><line x1="2418.4" y1="4152.4" x2="2132.1" y2="4152.4" fill="#615a50" stroke="#cdcfcf" stroke-miterlimit="10" stroke-width="0.54"/><line x1="2418.4" y1="4168.1" x2="2132.1" y2="4168.1" fill="#615a50" stroke="#cdcfcf" stroke-miterlimit="10" stroke-width="0.54"/><line x1="2418.4" y1="4183.9" x2="2132.1" y2="4183.9" fill="#615a50" stroke="#cdcfcf" stroke-miterlimit="10" stroke-width="0.54"/><line x1="2418.4" y1="4199.6" x2="2132.1" y2="4199.6" fill="#615a50" stroke="#cdcfcf" stroke-miterlimit="10" stroke-width="0.54"/><line x1="2418.4" y1="4215.3" x2="2132.1" y2="4215.3" fill="#615a50" stroke="#cdcfcf" stroke-miterlimit="10" stroke-width="0.54"/><line x1="2418.4" y1="4231.1" x2="2132.1" y2="4231.1" fill="#615a50" stroke="#cdcfcf" stroke-miterlimit="10" stroke-width="0.54"/><line x1="2418.4" y1="4246.8" x2="2132.1" y2="4246.8" fill="#615a50" stroke="#cdcfcf" stroke-miterlimit="10" stroke-width="0.54"/><line x1="2418.4" y1="4262.6" x2="2132.1" y2="4262.6" fill="#615a50" stroke="#cdcfcf" stroke-miterlimit="10" stroke-width="0.54"/><line x1="2418.4" y1="4278.3" x2="2132.1" y2="4278.3" fill="#615a50" stroke="#cdcfcf" stroke-miterlimit="10" stroke-width="0.54"/><line x1="2418.4" y1="4294.1" x2="2132.1" y2="4294.1" fill="#615a50" stroke="#cdcfcf" stroke-miterlimit="10" stroke-width="0.54"/><line x1="2418.4" y1="4309.8" x2="2132.1" y2="4309.8" fill="#615a50" stroke="#cdcfcf" stroke-miterlimit="10" stroke-width="0.54"/><line x1="2418.4" y1="4325.5" x2="2132.1" y2="4325.5" fill="#615a50" stroke="#cdcfcf" stroke-miterlimit="10" stroke-width="0.54"/><line x1="2418.4" y1="4341.3" x2="2132.1" y2="4341.3" fill="#615a50" stroke="#cdcfcf" stroke-miterlimit="10" stroke-width="0.54"/><line x1="2418.4" y1="4357" x2="2132.1" y2="4357" fill="#615a50" stroke="#cdcfcf" stroke-miterlimit="10" stroke-width="0.54"/><line x1="2418.4" y1="4372.8" x2="2132.1" y2="4372.8" fill="#615a50" stroke="#cdcfcf" stroke-miterlimit="10" stroke-width="0.54"/><line x1="2418.4" y1="4388.5" x2="2132.1" y2="4388.5" fill="#615a50" stroke="#cdcfcf" stroke-miterlimit="10" stroke-width="0.54"/><rect x="2950.7" y="4199.5" width="1666.5" height="922.14" rx="99.9" opacity="0.36" fill="none" stroke="#c8c1a6" stroke-miterlimit="10" stroke-width="6" transform="translate(8444.5 876.6) rotate(90)"/><rect x="2164.6" y="4389.2" width="1666.5" height="542.71" rx="99.9" opacity="0.36" fill="none" stroke="#c8c1a6" stroke-miterlimit="10" stroke-width="6" transform="translate(7658.4 1662.7) rotate(90)"/><rect x="403.2" y="3837.3" width="1414" height="1646.5" rx="89.9" fill="none" stroke="#c8c1a6" stroke-miterlimit="10" stroke-width="6" opacity="0.36"/><path d="M403.2,192.2V574.9a90,90,0,0,0,90,89.9H2136.1a90,90,0,0,0,90-89.9V286.1" fill="none" stroke="#c8c1a6" stroke-miterlimit="10" stroke-width="2.73"/><path d="M4166.2,192.2V574.9a90,90,0,0,1-90,89.9h-1643a90,90,0,0,1-89.9-89.9V285" fill="none" stroke="#c8c1a6" stroke-miterlimit="10" stroke-width="2.73"/><path d="M4400.5,4921.9c7.7,0,7.7-12,0-12s-7.8,12,0,12Z" fill="#264c24"/><path d="M2168.6,4752.4a106.6,106.6,0,0,1,72.8-101.1V4416.8l-104.3,1v631.9h104.3V4853.6A106.8,106.8,0,0,1,2168.6,4752.4Z" fill="#27b24b" stroke="#264c24" stroke-miterlimit="10" stroke-width="5" opacity="0.48"/><path d="M2309,4417.8v233.5a106.6,106.6,0,0,1,0,202.3v196.1h104.4V4416.8Z" fill="#27b24b" stroke="#264c24" stroke-miterlimit="10" stroke-width="5" opacity="0.48"/><circle cx="2273.2" cy="4751" r="73.7" fill="#27b24b" stroke="#264c24" stroke-miterlimit="10" stroke-width="5" opacity="0.48"/><path d="M478.2,5483.8H1728.4a0,0,0,0,1,0,0v21.6a62.3,62.3,0,0,1-62.3,62.3H540.5a62.3,62.3,0,0,1-62.3-62.3v-21.6A0,0,0,0,1,478.2,5483.8Z" fill="#c8c1a6" opacity="0.36"/><path d="M3409.6,5493.8h730.6a0,0,0,0,1,0,0v21.6a62.3,62.3,0,0,1-62.3,62.3h-606a62.3,62.3,0,0,1-62.3-62.3v-21.6A0,0,0,0,1,3409.6,5493.8Z" fill="#c8c1a6" opacity="0.36"/><path d="M2808.6,5493.8h378.5a0,0,0,0,1,0,0v21.6a62.3,62.3,0,0,1-62.3,62.3h-254a62.3,62.3,0,0,1-62.3-62.3v-21.6A0,0,0,0,1,2808.6,5493.8Z" fill="#c8c1a6" opacity="0.36"/><line x1="5" y1="5903.8" x2="4597.9" y2="5903.8" fill="none" stroke="#c8c1a6" stroke-miterlimit="10" stroke-width="6" opacity="0.36"/><line x1="-5" y1="5483.8" x2="478.2" y2="5483.8" fill="none" stroke="#c8c1a6" stroke-miterlimit="10" stroke-width="6" opacity="0.36"/><line x1="4140.1" y1="5493.8" x2="4597.9" y2="5493.8" fill="none" stroke="#c8c1a6" stroke-miterlimit="10" stroke-width="6" opacity="0.36"/><path d="M2344.1,285a118.7,118.7,0,1,0-118,1.1" fill="none" stroke="#c8c1a6" stroke-miterlimit="10" stroke-width="2.95"/><circle cx="2284.1" cy="174.9" r="73.7" fill="#27b24b" stroke="#264c24" stroke-miterlimit="10" stroke-width="5" opacity="0.48"/><path d="M4331.3,2040h-7v-1h7Zm-14,0h-7v-1h7Zm-14,0h-7v-1h7Zm-14,0h-7v-1h7Zm-14,0h-7v-1h7Zm-14,0h-7v-1h7Zm-14,0h-7v-1h7Zm-14,0h-7v-1h7Zm-14,0h-7v-1h7Zm-14,0h-7v-1h7Zm-14,0h-7v-1h7Zm-14,0h-7v-1h7Zm-14,0h-7v-1h7Zm-14,0h-7v-1h7Zm-14,0h-7v-1h7Zm-14,0h-7v-1h7Zm-14,0h-7v-1h7Zm-14,0h-7v-1h7Zm-14,0h-7v-1h7Zm-14,0h-7v-1h7Zm-14,0h-7v-1h7Zm-14,0h-7v-1h7Zm-14,0h-7v-1h7Zm-14,0h-7v-1h7Zm-14,0h-7v-1h7Zm-14,0h-7v-1h7Zm-14,0h-7v-1h7Zm-14,0h-7v-1h7Zm-14,0h-7v-1h7Zm-14,0h-7v-1h7Zm-14,0h-7v-1h7Zm-14,0h-7v-1h7Zm-14,0h-7v-1h7Zm-14,0h-7v-1h7Zm-14,0h-7v-1h7Zm-14,0h-7v-1h7Zm-14,0h-7v-1h7Zm-14,0h-7v-1h7Zm-14,0h-7v-1h7Zm-14,0h-7v-1h7Zm-14,0h-7v-1h7Zm-14,0h-7v-1h7Zm-14,0h-7v-1h7Zm-14,0h-7v-1h7Zm-14,0h-7v-1h7Zm-14,0h-7v-1h7Zm-14,0h-7v-1h7Zm-14,0h-7v-1h7Zm-14,0h-7v-1h7Zm-14,0h-7v-1h7Zm-14,0h-7v-1h7Zm-14,0h-7v-1h7Zm-14,0h-7v-1h7Zm-14,0h-7v-1h7Zm-14,0h-7v-1h7Zm-14,0h-7v-1h7Zm-14,0h-7v-1h7Zm-14,0h-7v-1h7Zm-14,0h-7v-1h7Zm-14,0h-7v-1h7Zm-14,0h-7v-1h7Zm-14,0h-7v-1h7Zm-14,0h-7v-1h7Zm-14,0h-7v-1h7Zm-14,0h-7v-1h7Zm-14,0h-7v-1h7Zm-14,0h-7v-1h7Zm-14,0h-7v-1h7Zm-14,0h-7v-1h7Zm-14,0h-7v-1h7Zm-14,0h-7v-1h7Zm-14,0h-7v-1h7Zm-14,0h-7v-1h7Zm-14,0h-7v-1h7Zm-14,0h-7.1v-1h7.1Zm-14.1,0h-7v-1h7Zm-14,0h-7v-1h7Zm-14,0h-7v-1h7Zm-14,0h-7v-1h7Zm-14,0h-7v-1h7Zm-14,0h-7v-1h7Zm-14,0h-7v-1h7Zm-14,0h-7v-1h7Zm-14,0h-7v-1h7Zm-14,0h-7v-1h7Zm-14,0h-7v-1h7Zm-14,0h-7v-1h7Zm-14,0h-7v-1h7Zm-14,0h-7v-1h7Zm-14,0h-7v-1h7Zm-14,0h-7v-1h7Zm-14,0h-7v-1h7Zm-14,0h-7v-1h7Zm-14,0h-7v-1h7Zm-14,0h-7v-1h7Zm-14,0h-7v-1h7Zm-14,0h-7v-1h7Zm-14,0h-7v-1h7Zm-14,0h-7v-1h7Zm-14,0h-7v-1h7Zm-14,0h-7v-1h7Zm-14,0h-7v-1h7Zm-14,0h-7v-1h7Zm-14,0h-7v-1h7Zm-14,0h-7v-1h7Zm-14,0h-7v-1h7Zm-14,0h-7v-1h7Zm-14,0h-7v-1h7Zm-14,0h-7v-1h7Zm-14,0h-7v-1h7Zm-14,0h-7v-1h7Zm-14,0h-7v-1h7Zm-14,0h-7v-1h7Zm-14,0h-7v-1h7Zm-14,0h-7v-1h7Zm-14,0h-7v-1h7Zm-14,0h-7v-1h7Zm-14,0h-7v-1h7Zm-14,0h-7v-1h7Zm-14,0h-7v-1h7Zm-14,0h-7v-1h7Zm-14,0h-7v-1h7Zm-14,0h-7v-1h7Zm-14,0h-7v-1h7Zm-14,0h-7v-1h7Zm-14,0h-7v-1h7Zm-14,0h-7v-1h7Zm-14,0h-7v-1h7Zm-14,0h-7v-1h7Zm-14,0h-7v-1h7Zm-14,0h-7v-1h7Zm-14,0h-7v-1h7Zm-14,0h-7v-1h7Zm-14,0h-7v-1h7Zm-14,0h-7v-1h7Zm-14,0h-7v-1h7Zm-14,0h-7v-1h7Zm-14,0h-7v-1h7Zm-14,0h-7v-1h7Zm-14,0h-7v-1h7Zm-14,0h-7v-1h7Zm-14,0h-7v-1h7Zm-14,0h-7v-1h7Zm-14,0h-7v-1h7Zm-14,0h-7v-1h7Zm-14,0h-7v-1h7Zm-14,0h-7v-1h7Zm-14,0h-7v-1h7Zm-14,0h-7v-1h7Zm-14,0h-7v-1h7Zm-14,0h-7v-1h7Zm-14,0h-7v-1h7Zm-14,0h-7v-1h7Zm-14,0h-7v-1h7Zm-14,0h-7v-1h7Zm-14,0h-7v-1h7Zm-14,0h-7v-1h7Zm-14,0h-7v-1h7Zm-14,0h-7v-1h7Zm-14,0h-7v-1h7Zm-14,0h-7v-1h7Zm-14,0h-7v-1h7Zm-14,0h-7v-1h7Zm-14,0h-7v-1h7Zm-14,0h-7v-1h7Zm-14,0h-7v-1h7Zm-14,0h-7v-1h7Zm-14,0h-7v-1h7Zm-14,0h-7v-1h7Zm-14,0h-7v-1h7Zm-14,0h-7v-1h7Zm-14,0h-7v-1h7Zm-14,0h-7v-1h7Zm-14,0h-7v-1h7Zm-14,0h-7v-1h7Zm-14,0h-7v-1h7Zm-14,0h-7v-1h7Zm-14,0h-7v-1h7Zm-14,0h-7v-1h7Zm-14,0h-7v-1h7Zm-14,0h-7v-1h7Zm-14,0h-7v-1h7Zm-14,0h-7v-1h7Zm-14,0h-7v-1h7Zm-14,0h-7v-1h7Zm-14,0h-7v-1h7Zm-14,0h-7v-1h7Zm-14,0h-7v-1h7Zm-14,0h-7v-1h7Zm-14,0h-7v-1h7Zm-14,0h-7v-1h7Zm-14,0h-7v-1h7Zm-14,0h-7v-1h7Zm-14,0h-7v-1h7Zm-14,0h-7v-1h7Zm-14,0h-7v-1h7Zm-14,0h-7v-1h7Zm-14,0h-7v-1h7Zm-14,0h-7v-1h7Zm-14,0h-7v-1h7Zm-14,0h-7v-1h7Zm-14,0h-7v-1h7Zm-14,0h-7v-1h7Zm-14,0h-7v-1h7Zm-14,0h-7v-1h7Zm-14,0h-7v-1h7Zm-14,0h-7v-1h7Zm-14,0h-7v-1h7Zm-14,0h-7v-1h7Zm-14,0h-7v-1h7Zm-14,0h-7v-1h7Zm-14,0h-7v-1h7Zm-14,0h-7v-1h7Zm-14,0h-7v-1h7Zm-14,0h-7v-1h7Zm-14,0h-7v-1h7Zm-14,0h-7v-1h7Zm-14,0h-7v-1h7Zm-14,0h-7v-1h7Zm-14,0h-7v-1h7Zm-14,0h-7v-1h7Zm-14,0h-7v-1h7Zm-14,0h-7v-1h7Zm-14,0h-7v-1h7Zm-14,0h-7v-1h7Zm-14,0h-7v-1h7Zm-14,0h-7v-1h7Zm-14,0h-7v-1h7Zm-14,0h-7v-1h7Zm-14,0h-7v-1h7Zm-14,0h-7v-1h7Zm-14,0h-7v-1h7Zm-14,0h-7v-1h7Zm-14,0h-7v-1h7Zm-14,0h-7v-1h7Zm-14,0h-7v-1h7Zm-14,0h-7v-1h7Zm-14,0h-7v-1h7Zm-14,0h-7v-1h7Zm-14,0h-7v-1h7Zm-14,0h-7v-1h7Zm-14,0h-7v-1h7Zm-14,0h-7v-1h7Zm-14,0h-7v-1h7Zm-14,0h-7v-1h7Zm-14,0h-7v-1h7Zm-14,0h-7v-1h7Zm-14,0h-7v-1h7Zm-14,0h-7v-1h7Zm-14,0h-7v-1h7Zm-14,0h-7v-1h7Zm-14,0h-7v-1h7Zm-14,0h-7v-1h7Zm-14,0h-7v-1h7Zm-14,0h-7v-1h7Zm-14,0h-7v-1h7Zm-14,0h-7v-1h7Zm-14,0h-7v-1h7Zm-14,0h-7v-1h7Zm-14,0h-7v-1h7Zm-14,0h-7v-1h7Zm-14,0h-7v-1h7Zm-14,0h-7v-1h7Zm-14,0h-7v-1h7Zm-14,0h-7v-1h7Zm-14,0h-7v-1h7Zm-14,0h-7v-1h7Zm-14,0h-7v-1h7Zm-14,0h-7v-1h7Zm-14,0h-7v-1h7Zm-14,0h-7v-1h7Zm-14,0h-7v-1h7Zm-14,0h-7v-1h7Zm-14,0h-7v-1h7Zm-14,0h-7v-1h7Zm-14,0h-7v-1h7Zm-14,0h-7v-1h7Zm-14,0h-7v-1h7Zm-14,0h-7v-1h7Zm-14,0h-7v-1h7Zm-14,0h-7v-1h7Zm-14,0h-7v-1h7Zm-14,0h-7v-1h7Zm-14,0h-7v-1h7Zm-14,0h-7v-1h7Zm-14,0h-7v-1h7Z" fill="#c8c1a6"/><path d="M2072.2,3733.1h-2v-1h2Zm-9,0h-7v-1h7Zm-14,0h-7v-1h7Zm-14,0h-7v-1h7Zm-14,0h-7v-1h7Zm-14,0h-7v-1h7Zm-14,0h-7v-1h7Zm-14,0h-7v-1h7Zm-14,0h-7v-1h7Zm-14,0h-7v-1h7Zm-14,0h-7v-1h7Zm-14,0h-7v-1h7Zm-14,0h-7v-1h7Zm-14,0h-7v-1h7Zm-14,0h-7v-1h7Zm-14,0h-7v-1h7Zm-14,0h-7v-1h7Zm-14,0h-7v-1h7Zm-14,0h-7v-1h7Zm-14,0h-7v-1h7Zm-14,0h-7v-1h7Zm-14,0h-7v-1h7Zm-14,0h-7v-1h7Zm-14,0h-7v-1h7Zm-14,0h-7v-1h7Zm-14,0h-7v-1h7Zm-14,0h-7v-1h7Zm-14,0h-7v-1h7Zm-14,0h-7v-1h7Zm-14,0h-7v-1h7Zm-14,0h-7v-1h7Zm-14,0h-7v-1h7Zm-14,0h-7v-1h7Zm-14,0h-7v-1h7Zm-14,0h-7v-1h7Zm-14,0h-7v-1h7Zm-14,0h-7v-1h7Zm-14,0h-7v-1h7Zm-14,0h-7v-1h7Zm-14,0h-7v-1h7Zm-14,0h-7v-1h7Zm-14,0h-7v-1h7Zm-14,0h-7v-1h7Zm-14,0h-7v-1h7Zm-14,0h-7v-1h7Zm-14,0h-7v-1h7Zm-14,0h-7v-1h7Zm-14,0h-7v-1h7Zm-14,0h-7v-1h7Zm-14,0h-7v-1h7Zm-14,0h-7v-1h7Zm-14,0h-7v-1h7Zm-14,0h-7v-1h7Zm-14,0h-7v-1h7Zm-14,0h-7v-1h7Zm-14,0h-7v-1h7Zm-14,0h-7v-1h7Zm-14,0h-7v-1h7Zm-14,0h-7v-1h7Zm-14,0h-7v-1h7Zm-14,0h-7v-1h7Zm-14,0h-7v-1h7Zm-14,0h-7v-1h7Zm-14,0h-7v-1h7Zm-14,0h-7v-1h7Zm-14,0h-7v-1h7Zm-14,0h-7v-1h7Zm-14,0h-7v-1h7Zm-14,0h-7v-1h7Zm-14,0h-7v-1h7Zm-14,0h-7v-1h7Zm-14,0h-7v-1h7Zm-14,0h-7v-1h7Zm-14,0h-7v-1h7Zm-14,0h-7v-1h7Zm-14,0h-7v-1h7Zm-14,0h-7v-1h7Zm-14,0h-7v-1h7Zm-14,0h-7v-1h7Zm-14,0h-7v-1h7Zm-14,0h-7v-1h7Zm-14,0h-7v-1h7Zm-14,0h-7v-1h7Zm-14,0h-7v-1h7Zm-14,0h-7v-1h7Zm-14,0h-7v-1h7Zm-14,0h-7v-1h7Zm-14,0h-7v-1h7Zm-14,0h-7v-1h7Zm-14,0h-7v-1h7Zm-14,0h-7v-1h7Zm-14,0h-7v-1h7Zm-14,0h-7v-1h7Zm-14,0h-7v-1h7Zm-14,0h-7v-1h7Zm-14,0h-7v-1h7Zm-14,0h-7v-1h7Zm-14,0h-7v-1h7Zm-14,0h-7v-1h7Zm-14,0h-7v-1h7Zm-14,0h-7v-1h7Zm-14,0h-7v-1h7Zm-14,0h-7v-1h7Zm-14,0h-7v-1h7Zm-14,0h-7v-1h7Zm-14,0h-7v-1h7Zm-14,0h-7v-1h7Zm-14,0h-7v-1h7Zm-14,0h-7v-1h7Zm-14,0h-7v-1h7Zm-14,0h-7v-1h7Zm-14,0h-7v-1h7Zm-14,0h-7v-1h7Zm-14,0h-7v-1h7Zm-14,0h-7v-1h7Zm-14,0h-7v-1h7Zm-14,0h-7v-1h7Zm-14,0h-7v-1h7Zm-14,0h-7v-1h7Zm-14,0h-7v-1h7Zm-14,0h-7v-1h7Zm-14,0h-7v-1h7Zm-14,0h-7v-1h7Zm-14,0h-7v-1h7Zm-14,0h-7v-1h7Z" fill="#c8c1a6"/><path d="M4334.7,3733.1h-4.6v-1h4.6Zm-11.6,0h-7v-1h7Zm-14,0h-7v-1h7Zm-14,0h-7v-1h7Zm-14,0h-7v-1h7Zm-14,0h-7v-1h7Zm-14,0h-7v-1h7Zm-14,0h-7v-1h7Zm-14,0h-7v-1h7Zm-14,0h-7v-1h7Zm-14,0h-7v-1h7Zm-14,0h-7v-1h7Zm-14,0h-7v-1h7Zm-14,0h-7v-1h7Zm-14,0h-7v-1h7Zm-14,0h-7v-1h7Zm-14,0h-7v-1h7Zm-14,0h-7v-1h7Zm-14,0h-7v-1h7Zm-14,0h-7v-1h7Zm-14,0h-7v-1h7Zm-14,0h-7v-1h7Zm-14,0h-7v-1h7Zm-14,0h-7v-1h7Zm-14,0h-7v-1h7Zm-14,0h-7v-1h7Zm-14,0h-7v-1h7Zm-14,0h-7v-1h7Zm-14,0h-7v-1h7Zm-14,0h-7v-1h7Zm-14,0h-7v-1h7Zm-14,0h-7v-1h7Zm-14,0h-7v-1h7Zm-14,0h-7v-1h7Zm-14,0h-7v-1h7Zm-14,0h-7v-1h7Zm-14,0h-7v-1h7Zm-14,0h-7v-1h7Zm-14,0h-7v-1h7Zm-14,0h-7v-1h7Zm-14,0h-7v-1h7Zm-14,0h-7v-1h7Zm-14,0h-7v-1h7Zm-14,0h-7v-1h7Zm-14,0h-7v-1h7Zm-14,0h-7v-1h7Zm-14,0h-7v-1h7Zm-14,0h-7v-1h7Zm-14,0h-7v-1h7Zm-14,0h-7v-1h7Zm-14,0h-7v-1h7Zm-14,0h-7v-1h7Zm-14,0h-7v-1h7Zm-14,0h-7v-1h7Zm-14,0h-7v-1h7Zm-14,0h-7v-1h7Zm-14,0h-7v-1h7Zm-14,0h-7v-1h7Zm-14,0h-7v-1h7Zm-14,0h-7v-1h7Zm-14,0h-7v-1h7Zm-14,0h-7v-1h7Zm-14,0h-7v-1h7Zm-14,0h-7v-1h7Zm-14,0h-7v-1h7Zm-14,0h-7v-1h7Zm-14,0h-7v-1h7Zm-14,0h-7v-1h7Zm-14,0h-7v-1h7Zm-14,0h-7v-1h7Zm-14,0h-7v-1h7Zm-14,0h-7v-1h7Zm-14,0h-7v-1h7Zm-14,0h-7v-1h7Zm-14,0h-7v-1h7Zm-14,0h-7v-1h7Zm-14,0h-7v-1h7Zm-14,0h-7v-1h7Zm-14,0h-7v-1h7Zm-14,0h-7v-1h7Zm-14,0h-7v-1h7Zm-14,0h-7v-1h7Zm-14,0h-7v-1h7Zm-14,0h-7v-1h7Zm-14,0h-7v-1h7Zm-14,0h-7v-1h7Zm-14,0h-7v-1h7Zm-14,0h-7v-1h7Zm-14,0h-7v-1h7Zm-14,0h-7v-1h7Zm-14,0h-7v-1h7Zm-14,0h-7v-1h7Zm-14,0h-7v-1h7Zm-14,0h-7v-1h7Zm-14,0h-7v-1h7Zm-14,0h-7v-1h7Zm-14,0h-7v-1h7Zm-14,0h-7v-1h7Zm-14,0h-7v-1h7Zm-14,0h-7v-1h7Zm-14,0h-7v-1h7Zm-14,0h-7v-1h7Zm-14,0h-7v-1h7Zm-14,0h-7v-1h7Zm-14,0h-7v-1h7Zm-14,0h-7v-1h7Zm-14,0h-7v-1h7Zm-14,0h-7v-1h7Zm-14,0h-7v-1h7Zm-14,0h-7v-1h7Zm-14,0h-7v-1h7Zm-14,0h-7v-1h7Zm-14,0h-7v-1h7Zm-14,0h-7v-1h7Zm-14,0h-7v-1h7Zm-14,0h-7v-1h7Zm-14,0h-7v-1h7Zm-14,0h-7v-1h7Zm-14,0h-7v-1h7Zm-14,0h-7v-1h7Zm-14,0h-7v-1h7Zm-14,0h-7v-1h7Zm-14,0h-7v-1h7Zm-14,0h-7v-1h7Zm-14,0h-7v-1h7Zm-14,0h-7v-1h7Zm-14,0h-7v-1h7Zm-14,0h-7v-1h7Zm-14,0h-7v-1h7Zm-14,0h-7v-1h7Zm-14,0h-7v-1h7Zm-14,0h-7v-1h7Zm-14,0h-7v-1h7Z" fill="#c8c1a6"/><path d="M2273.7,3640.3h-1v-7h1Zm0-14h-1v-7h1Zm0-14h-1v-7h1Zm0-14h-1v-7h1Zm0-14h-1v-7h1Zm0-14h-1v-7h1Zm0-14h-1v-7h1Zm0-14h-1v-7h1Zm0-14h-1v-7h1Zm0-14h-1v-7h1Zm0-14h-1v-7h1Zm0-14h-1v-7h1Zm0-14h-1v-7h1Zm0-14h-1v-7h1Zm0-14h-1v-7h1Zm0-14h-1v-7h1Zm0-14h-1v-7h1Zm0-14h-1v-7h1Zm0-14h-1v-7h1Zm0-14h-1v-7h1Zm0-14h-1v-7h1Zm0-14h-1v-7h1Zm0-14h-1v-7h1Zm0-14h-1v-7h1Zm0-14h-1v-7h1Zm0-14h-1v-7h1Zm0-14h-1v-7h1Zm0-14h-1v-7h1Zm0-14h-1v-7h1Zm0-14h-1v-7h1Zm0-14h-1v-7h1Zm0-14h-1v-7h1Zm0-14h-1v-7h1Zm0-14h-1v-7h1Zm0-14h-1v-7h1Zm0-14h-1v-7h1Zm0-14h-1v-7h1Zm0-14h-1v-7h1Zm0-14h-1v-7h1Zm0-14h-1v-7h1Zm0-14h-1v-7h1Zm0-14h-1v-7h1Zm0-14.1h-1v-7h1Zm0-14h-1v-7h1Zm0-14h-1v-7h1Zm0-14h-1v-7h1Zm0-14h-1v-7h1Zm0-14h-1v-7h1Zm0-14h-1v-7h1Zm0-14h-1v-7h1Zm0-14h-1v-7h1Zm0-14h-1v-7h1Zm0-14h-1v-7h1Zm0-14h-1v-7h1Zm0-14h-1v-7h1Zm0-14h-1v-7h1Zm0-14h-1v-7h1Zm0-14h-1v-7h1Zm0-14h-1v-7h1Zm0-14h-1v-7h1Zm0-14h-1v-7h1Zm0-14h-1v-7h1Zm0-14h-1v-7h1Zm0-14h-1v-7h1Zm0-14h-1v-7h1Zm0-14h-1v-7h1Zm0-14h-1v-7h1Zm0-14h-1v-7h1Zm0-14h-1v-7h1Zm0-14h-1v-7h1Zm0-14h-1v-7h1Zm0-14h-1v-7h1Zm0-14h-1v-7h1Zm0-14h-1v-7h1Zm0-14h-1v-7h1Zm0-14h-1v-7h1Zm0-14h-1v-7h1Zm0-14h-1v-7h1Zm0-14h-1v-7h1Zm0-14h-1v-7h1Zm0-14h-1v-7h1Zm0-14h-1v-7h1Zm0-14h-1v-7h1Zm0-14h-1v-7h1Zm0-14h-1v-7h1Zm0-14h-1v-7h1Zm0-14h-1v-7h1Zm0-14h-1v-7h1Zm0-14h-1v-7h1Zm0-14h-1v-7h1Zm0-14h-1v-7h1Zm0-14h-1v-7h1Zm0-14h-1v-7h1Zm0-14h-1v-7h1Zm0-14h-1v-7h1Zm0-14h-1v-7h1Zm0-14h-1v-7h1Zm0-14h-1v-7h1Zm0-14h-1v-7h1Zm0-14h-1v-7h1Zm0-14h-1v-7h1Zm0-14h-1v-7h1Zm0-14h-1v-7h1Zm0-14h-1v-7h1Zm0-14h-1v-7h1Zm0-14h-1v-7h1Zm0-14h-1v-7h1Zm0-14h-1v-7h1Zm0-14h-1v-7h1Zm0-14h-1v-7h1Zm0-14h-1v-7h1Zm0-14h-1v-7h1Zm0-14h-1v-7h1Zm0-14h-1v-7h1Zm0-14h-1v-7h1Zm0-14h-1v-7h1Zm0-14h-1v-7h1Zm0-14h-1v-7h1Zm0-14h-1v-7h1Zm0-14h-1v-7h1Zm0-14h-1v-7h1Zm0-14h-1v-7h1Zm0-14h-1v-7h1Zm0-14h-1v-7h1Zm0-14h-1v-7h1Zm0-14h-1v-7h1Zm0-14h-1v-7h1Zm0-14h-1v-7h1Zm0-14h-1v-7h1Zm0-14h-1v-7h1Zm0-14h-1v-7h1Zm0-14h-1v-7h1Zm0-14h-1v-7h1Zm0-14h-1v-7h1Zm0-14h-1v-7h1Zm0-14h-1v-7h1Zm0-14h-1v-7h1Zm0-14h-1v-7h1Zm0-14h-1v-7h1Zm0-14h-1v-7h1Zm0-14h-1v-7h1Zm0-14h-1v-7h1Zm0-14h-1v-7h1Zm0-14h-1v-7h1Zm0-14h-1v-7h1Zm0-14h-1v-7h1Zm0-14h-1v-7h1Zm0-14h-1v-7h1Zm0-14h-1v-7h1Zm0-14h-1v-7h1Zm0-14h-1v-7h1Zm0-14h-1v-7h1Zm0-14h-1v-7h1Zm0-14h-1v-7h1Zm0-14h-1v-7h1Zm0-14h-1v-7h1Zm0-14h-1v-7h1Zm0-14h-1v-7h1Zm0-14h-1v-7h1Zm0-14h-1v-7h1Zm0-14h-1v-7h1Zm0-14h-1v-7h1Zm0-14h-1v-7h1Zm0-14h-1v-7h1Zm0-14h-1v-7h1Zm0-14h-1v-7h1Zm0-14h-1v-7h1Zm0-14h-1v-7h1Zm0-14h-1v-7h1Zm0-14h-1v-7h1Zm0-14h-1v-7h1Zm0-14h-1v-7h1Zm0-14h-1v-7h1Zm0-14h-1v-7h1Zm0-14h-1v-7h1Zm0-14h-1v-7h1Zm0-14h-1v-7h1Zm0-14h-1v-7h1Zm0-14h-1v-7h1Zm0-14h-1v-7h1Zm0-14h-1v-7h1Zm0-14h-1v-7h1Zm0-14h-1v-7h1Zm0-14h-1v-7h1Zm0-14h-1v-7h1Zm0-14h-1v-7h1Zm0-14h-1v-7h1Zm0-14h-1v-7h1Zm0-14h-1v-7h1Zm0-14h-1v-7h1Zm0-14h-1v-7h1Zm0-14h-1v-7h1Zm0-14h-1v-7h1Zm0-14h-1v-7h1Zm0-14h-1v-7h1Zm0-14h-1v-7h1Zm0-14h-1v-7h1Zm0-14h-1v-7h1Zm0-14h-1v-7h1Zm0-14h-1v-7h1Zm0-14h-1v-7h1Zm0-14h-1v-7h1Zm0-14h-1v-7h1Zm0-14h-1v-7h1Zm0-14h-1v-7h1Zm0-14h-1v-7h1Zm0-14h-1v-7h1Zm0-14h-1v-7h1Zm0-14h-1v-7h1Zm0-14h-1v-7h1Zm0-14h-1v-7h1Zm0-14h-1v-7h1Zm0-14h-1v-7h1Zm0-14h-1v-7h1Zm0-14h-1v-7h1Zm0-14h-1v-7h1Zm0-14h-1v-7h1Zm0-14h-1v-7h1Zm0-14h-1v-7h1Zm0-14h-1v-7h1Zm0-14h-1v-7h1Zm0-14h-1v-7h1Zm0-14h-1v-7h1Zm0-14h-1v-7h1Zm0-14h-1v-7h1Zm0-14h-1v-7h1Zm0-14h-1v-7h1Zm0-14h-1v-7h1Zm0-14h-1v-7h1Zm0-14h-1v-7h1Zm0-14h-1v-7h1Zm0-14h-1v-7h1Zm0-14h-1v-7h1Zm0-14h-1v-7h1Zm0-14h-1v-7h1Zm0-14h-1v-7h1Zm0-14h-1v-7h1Zm0-14h-1v-7h1Z" fill="#c8c1a6"/><path d="M1883.9,5443.1h-1v-7h1Zm0-14h-1v-7h1Zm0-14h-1v-7h1Zm0-14h-1v-7h1Zm0-14h-1v-7h1Zm0-14h-1v-7h1Zm0-14h-1v-7h1Zm0-14h-1v-7h1Zm0-14h-1v-7h1Zm0-14h-1v-7h1Zm0-14h-1v-7h1Zm0-14h-1v-7h1Zm0-14h-1v-7h1Zm0-14h-1v-7h1Zm0-14h-1v-7h1Zm0-14h-1v-7h1Zm0-14h-1v-7h1Zm0-14h-1v-7h1Zm0-14h-1v-7h1Zm0-14h-1v-7h1Zm0-14h-1v-7h1Zm0-14h-1v-7h1Zm0-14h-1v-7h1Zm0-14h-1v-7h1Zm0-14h-1v-7h1Zm0-14h-1v-7h1Zm0-14h-1v-7h1Zm0-14h-1v-7h1Zm0-14h-1v-7h1Zm0-14h-1v-7h1Zm0-14h-1v-7h1Zm0-14h-1v-7h1Zm0-14h-1v-7h1Zm0-14h-1v-7h1Zm0-14h-1v-7h1Zm0-14h-1v-7h1Zm0-14h-1v-7h1Zm0-14h-1v-7h1Zm0-14h-1v-7h1Zm0-14h-1v-7h1Zm0-14h-1v-7h1Zm0-14h-1v-7h1Zm0-14h-1v-7h1Zm0-14h-1v-7h1Zm0-14h-1v-7h1Zm0-14h-1v-7h1Zm0-14h-1v-7h1Zm0-14h-1v-7h1Zm0-14h-1v-7h1Zm0-14h-1v-7h1Zm0-14h-1v-7h1Zm0-14h-1v-7h1Zm0-14h-1v-7h1Zm0-14h-1v-7h1Zm0-14h-1v-7h1Zm0-14h-1v-7h1Zm0-14h-1v-7h1Zm0-14h-1v-7h1Zm0-14h-1v-7h1Zm0-14h-1v-7h1Zm0-14h-1v-7h1Zm0-14h-1v-7h1Zm0-14h-1v-7h1Zm0-14h-1v-7h1Zm0-14h-1v-7h1Zm0-14h-1v-7h1Zm0-14h-1v-7h1Zm0-14h-1v-7h1Zm0-14h-1v-7h1Zm0-14h-1v-7h1Zm0-14h-1v-7h1Zm0-14h-1v-7h1Zm0-14h-1v-7h1Zm0-14h-1v-7h1Zm0-14h-1v-7h1Zm0-14h-1v-7h1Zm0-14h-1v-7h1Zm0-14h-1v-7h1Zm0-14h-1v-7h1Zm0-14h-1v-7h1Zm0-14h-1v-7h1Zm0-14h-1v-7h1Zm0-14h-1v-7h1Zm0-14h-1v-7h1Zm0-14h-1v-7h1Zm0-14h-1v-7h1Zm0-14h-1v-7h1Zm0-14h-1v-7h1Zm0-14h-1v-7h1Zm0-14h-1v-7h1Zm0-14h-1v-7h1Zm0-14h-1v-7h1Zm0-14h-1v-7h1Zm0-14h-1v-7h1Zm0-14h-1v-7h1Zm0-14h-1v-7h1Zm0-14h-1v-7h1Zm0-14h-1v-7h1Zm0-14h-1v-7h1Zm0-14h-1v-7h1Zm0-14h-1v-7h1Zm0-14h-1v-7h1Zm0-14h-1v-7h1Zm0-14h-1v-7h1Zm0-14h-1v-7h1Zm0-14h-1v-7h1Zm0-14h-1v-7h1Zm0-14h-1v-7h1Zm0-14h-1v-7h1Zm0-14h-1v-7h1Zm0-14h-1v-7h1Zm0-14h-1v-7h1Zm0-14h-1v-7h1Zm0-14h-1v-7h1Zm0-14h-1v-7h1Zm0-14h-1v-7h1Zm0-14h-1v-7h1Zm0-14h-1v-7h1Zm0-14h-1v-7h1Zm0-14h-1v-7h1Zm0-14h-1v-7h1Zm0-14h-1v-7h1Zm0-14h-1v-2.5h1Z" fill="#c8c1a6"/><path d="M2663,5443.1h-1v-7h1Zm0-14h-1v-7h1Zm0-14h-1v-7h1Zm0-14h-1v-7h1Zm0-14h-1v-7h1Zm0-14h-1v-7h1Zm0-14h-1v-7h1Zm0-14h-1v-7h1Zm0-14h-1v-7h1Zm0-14h-1v-7h1Zm0-14h-1v-7h1Zm0-14h-1v-7h1Zm0-14h-1v-7h1Zm0-14h-1v-7h1Zm0-14h-1v-7h1Zm0-14h-1v-7h1Zm0-14h-1v-7h1Zm0-14h-1v-7h1Zm0-14h-1v-7h1Zm0-14h-1v-7h1Zm0-14h-1v-7h1Zm0-14h-1v-7h1Zm0-14h-1v-7h1Zm0-14h-1v-7h1Zm0-14h-1v-7h1Zm0-14h-1v-7h1Zm0-14h-1v-7h1Zm0-14h-1v-7h1Zm0-14h-1v-7h1Zm0-14h-1v-7h1Zm0-14h-1v-7h1Zm0-14h-1v-7h1Zm0-14h-1v-7h1Zm0-14h-1v-7h1Zm0-14h-1v-7h1Zm0-14h-1v-7h1Zm0-14h-1v-7h1Zm0-14h-1v-7h1Zm0-14h-1v-7h1Zm0-14h-1v-7h1Zm0-14h-1v-7h1Zm0-14h-1v-7h1Zm0-14h-1v-7h1Zm0-14h-1v-7h1Zm0-14h-1v-7h1Zm0-14h-1v-7h1Zm0-14h-1v-7h1Zm0-14h-1v-7h1Zm0-14h-1v-7h1Zm0-14h-1v-7h1Zm0-14h-1v-7h1Zm0-14h-1v-7h1Zm0-14h-1v-7h1Zm0-14h-1v-7h1Zm0-14h-1v-7h1Zm0-14h-1v-7h1Zm0-14h-1v-7h1Zm0-14h-1v-7h1Zm0-14h-1v-7h1Zm0-14h-1v-7h1Zm0-14h-1v-7h1Zm0-14h-1v-7h1Zm0-14h-1v-7h1Zm0-14h-1v-7h1Zm0-14h-1v-7h1Zm0-14h-1v-7h1Zm0-14h-1v-7h1Zm0-14h-1v-7h1Zm0-14h-1v-7h1Zm0-14h-1v-7h1Zm0-14h-1v-7h1Zm0-14h-1v-7h1Zm0-14h-1v-7h1Zm0-14h-1v-7h1Zm0-14h-1v-7h1Zm0-14h-1v-7h1Zm0-14h-1v-7h1Zm0-14h-1v-7h1Zm0-14h-1v-7h1Zm0-14h-1v-7h1Zm0-14h-1v-7h1Zm0-14h-1v-7h1Zm0-14h-1v-7h1Zm0-14h-1v-7h1Zm0-14h-1v-7h1Zm0-14h-1v-7h1Zm0-14h-1v-7h1Zm0-14h-1v-7h1Zm0-14h-1v-7h1Zm0-14h-1v-7h1Zm0-14h-1v-7h1Zm0-14h-1v-7h1Zm0-14h-1v-7h1Zm0-14h-1v-7h1Zm0-14h-1v-7h1Zm0-14h-1v-7h1Zm0-14h-1v-7h1Zm0-14h-1v-7h1Zm0-14h-1v-7h1Zm0-14h-1v-7h1Zm0-14h-1v-7h1Zm0-14h-1v-7h1Zm0-14h-1v-7h1Zm0-14h-1v-7h1Zm0-14h-1v-7h1Zm0-14h-1v-7h1Zm0-14h-1v-7h1Zm0-14h-1v-7h1Zm0-14h-1v-7h1Zm0-14h-1v-7h1Zm0-14h-1v-7h1Zm0-14h-1v-7h1Zm0-14h-1v-7h1Zm0-14h-1v-7h1Zm0-14h-1v-7h1Zm0-14h-1v-7h1Zm0-14h-1v-7h1Zm0-14h-1v-7h1Zm0-14h-1v-7h1Zm0-14h-1v-7h1Zm0-14h-1v-7h1Zm0-14h-1v-7h1Zm0-14h-1v-2.5h1Z" fill="#c8c1a6"/><line x1="3293.1" y1="5443.1" x2="3293.1" y2="3732.6" fill="#585a5c" stroke="#c8c1a6" stroke-miterlimit="10" stroke-dasharray="7"/><rect x="3260.3" y="2678.4" width="1548.7" height="400.81" rx="76.1" transform="translate(6913.4 -1155.8) rotate(90)" fill="#c8c1a6"/><rect x="3270.3" y="2688.4" width="1528.7" height="380.81" rx="66.1" transform="translate(6913.4 -1155.8) rotate(90)" fill="#59b87b"/><rect x="3855.6" y="2128.6" width="358.1" height="1503.19" rx="54.7" fill="#27b24b" stroke="#264c24" stroke-miterlimit="10" stroke-width="5" opacity="0.48"/><rect x="2782.6" y="2654.7" width="1548.7" height="448.18" rx="76.1" transform="translate(6435.8 -678.2) rotate(90)" fill="#c8c1a6"/><rect x="2792.6" y="2664.7" width="1528.7" height="428.18" rx="66.1" transform="translate(6435.8 -678.2) rotate(90)" fill="#59b87b"/><rect x="3354.2" y="2128.6" width="405.5" height="1503.19" rx="54.7" fill="#27b24b" stroke="#264c24" stroke-miterlimit="10" stroke-width="5" opacity="0.48"/><rect x="2282.1" y="2654.7" width="1548.7" height="448.18" rx="76.1" transform="translate(5935.3 -177.7) rotate(90)" fill="#c8c1a6"/><rect x="2292.1" y="2664.7" width="1528.7" height="428.18" rx="66.1" transform="translate(5935.3 -177.7) rotate(90)" fill="#59b87b"/><rect x="2853.7" y="2128.6" width="405.5" height="1503.19" rx="54.7" fill="#27b24b" stroke="#264c24" stroke-miterlimit="10" stroke-width="5" opacity="0.48"/><rect x="1783" y="2654.7" width="1548.7" height="448.18" rx="76.1" transform="translate(5436.2 321.4) rotate(90)" fill="#c8c1a6"/><rect x="1793" y="2664.7" width="1528.7" height="428.18" rx="66.1" transform="translate(5436.2 321.4) rotate(90)" fill="#59b87b"/><rect x="2354.6" y="2128.6" width="405.5" height="1503.19" rx="54.7" fill="#27b24b" stroke="#264c24" stroke-miterlimit="10" stroke-width="5" opacity="0.48"/><rect x="1215" y="2639.2" width="1548.7" height="479.22" rx="76.1" transform="translate(4868.1 889.5) rotate(90)" fill="#c8c1a6"/><rect x="1225" y="2649.2" width="1528.7" height="459.22" rx="66.1" transform="translate(4868.1 889.5) rotate(90)" fill="#59b87b"/><rect x="1227.7" y="2651.9" width="1523.2" height="456.55" rx="64.7" transform="translate(4869.5 890.9) rotate(90)" fill="#59b87b"/><rect x="1771" y="2128.6" width="436.5" height="1503.19" rx="54.7" fill="#27b24b" stroke="#264c24" stroke-miterlimit="10" stroke-width="5" opacity="0.48"/><rect x="744.7" y="2699.1" width="1548.7" height="359.46" rx="76.1" transform="translate(4397.9 1359.7) rotate(90)" fill="#c8c1a6"/><rect x="754.7" y="2709.1" width="1528.7" height="339.46" rx="66.1" transform="translate(4397.9 1359.7) rotate(90)" fill="#59b87b"/><rect x="1360.7" y="2128.6" width="316.8" height="1503.19" rx="54.7" fill="#27b24b" stroke="#264c24" stroke-miterlimit="10" stroke-width="5" opacity="0.48"/><rect x="298.8" y="2665.7" width="1548.7" height="426.18" rx="76.1" transform="translate(3951.9 1805.7) rotate(90)" fill="#c8c1a6"/><rect x="308.8" y="2675.7" width="1528.7" height="406.18" rx="66.1" transform="translate(3951.9 1805.7) rotate(90)" fill="#59b87b"/><rect x="881.4" y="2128.6" width="383.5" height="1503.19" rx="54.7" fill="#27b24b" stroke="#264c24" stroke-miterlimit="10" stroke-width="5" opacity="0.48"/><rect x="-180.6" y="2665.7" width="1548.7" height="426.18" rx="76.1" transform="translate(3472.6 2285) rotate(90)" fill="#c8c1a6"/><rect x="-170.6" y="2675.7" width="1528.7" height="406.18" rx="66.1" transform="translate(3472.6 2285) rotate(90)" fill="#59b87b"/><rect x="402" y="2128.6" width="383.5" height="1503.19" rx="54.7" fill="#27b24b" stroke="#264c24" stroke-miterlimit="10" stroke-width="5" opacity="0.48"/><rect x="1971.9" y="1159.2" width="1171" height="448.18" rx="76.1" transform="translate(3940.7 -1174.1) rotate(90)" fill="#c8c1a6"/><rect x="1981.9" y="1169.2" width="1151" height="428.18" rx="66.1" transform="translate(3940.7 -1174.1) rotate(90)" fill="#59b87b"/><rect x="2354.6" y="822" width="405.5" height="1125.46" rx="54.7" fill="#27b24b" stroke="#264c24" stroke-miterlimit="10" stroke-width="5" opacity="0.48"/><rect x="2469.1" y="1157.3" width="1174.8" height="448.18" rx="76.1" transform="translate(4437.9 -1675.1) rotate(90)" fill="#c8c1a6"/><rect x="2479.1" y="1167.3" width="1154.8" height="428.18" rx="66.1" transform="translate(4437.9 -1675.1) rotate(90)" fill="#59b87b"/><rect x="2853.7" y="818.2" width="405.5" height="1129.24" rx="54.7" fill="#27b24b" stroke="#264c24" stroke-miterlimit="10" stroke-width="5" opacity="0.48"/><rect x="2972.6" y="1160.3" width="1168.7" height="448.18" rx="76.1" transform="translate(4941.4 -2172.6) rotate(90)" fill="#c8c1a6"/><rect x="2982.6" y="1170.3" width="1148.7" height="428.18" rx="66.1" transform="translate(4941.4 -2172.6) rotate(90)" fill="#59b87b"/><rect x="3354.2" y="824.2" width="405.5" height="1123.21" rx="54.7" fill="#27b24b" stroke="#264c24" stroke-miterlimit="10" stroke-width="5" opacity="0.48"/><rect x="3451.4" y="1182.1" width="1168.7" height="404.63" rx="76.1" transform="translate(5420.1 -2651.3) rotate(90)" fill="#c8c1a6"/><rect x="3461.4" y="1192.1" width="1148.7" height="384.63" rx="66.1" transform="translate(5420.1 -2651.3) rotate(90)" fill="#59b87b"/><rect x="3854.7" y="824.2" width="362" height="1123.21" rx="54.7" fill="#27b24b" stroke="#264c24" stroke-miterlimit="10" stroke-width="5" opacity="0.48"/><rect x="1405.2" y="1145" width="1168.3" height="479.22" rx="76.1" transform="translate(3373.9 -604.7) rotate(90)" fill="#c8c1a6"/><rect x="1415.2" y="1155" width="1148.3" height="459.22" rx="66.1" transform="translate(3373.9 -604.7) rotate(90)" fill="#59b87b"/><rect x="1771" y="824.7" width="436.5" height="1122.78" rx="54.7" fill="#27b24b" stroke="#264c24" stroke-miterlimit="10" stroke-width="5" opacity="0.48"/><rect x="935" y="1200.7" width="1171.3" height="364.81" rx="76.1" transform="translate(2903.8 -137.5) rotate(90)" fill="#c8c1a6"/><rect x="945" y="1210.7" width="1151.3" height="344.81" rx="66.1" transform="translate(2903.8 -137.5) rotate(90)" fill="#59b87b"/><rect x="1359.6" y="821.6" width="322.1" height="1125.79" rx="54.7" fill="#27b24b" stroke="#264c24" stroke-miterlimit="10" stroke-width="5" opacity="0.48"/><rect x="485.1" y="1166.6" width="1175.9" height="428.44" rx="74.6" transform="translate(2453.9 307.7) rotate(90)" fill="#c8c1a6"/><rect x="495.1" y="1176.6" width="1155.9" height="408.44" rx="64.6" transform="translate(2453.9 307.7) rotate(90)" fill="#59b87b"/><rect x="879.7" y="817" width="386.8" height="1130.42" rx="53.4" fill="#27b24b" stroke="#264c24" stroke-miterlimit="10" stroke-width="4.88" opacity="0.48"/><rect x="4.4" y="1165.1" width="1178.9" height="428.44" rx="74.6" transform="translate(1973.1 785.6) rotate(90)" fill="#c8c1a6"/><rect x="14.4" y="1175.1" width="1158.9" height="408.44" rx="64.6" transform="translate(1973.1 785.6) rotate(90)" fill="#59b87b"/><rect x="400.4" y="814.1" width="386.8" height="1133.33" rx="53.4" fill="#27b24b" stroke="#264c24" stroke-miterlimit="10" stroke-width="4.88" opacity="0.48"/></g><g id="Tên_Đường" data-name="Tên Đường"><rect x="986.5" y="2011.4" width="535.2" height="56.33" fill="#6d6e71"/><g opacity="0.6"><path d="M1027,2027.3h-9.2V2024h22.5v3.3H1031v27.1h-4Z" fill="#fff"/><path d="M1068.5,2038.9c0,10.4-6.3,16-14.1,16s-13.7-6.3-13.7-15.5,6-16,14.1-16S1068.5,2029.8,1068.5,2038.9Zm-23.7.4c0,6.6,3.6,12.4,9.8,12.4s9.8-5.7,9.8-12.6-3.2-12.5-9.7-12.5S1044.8,2032.7,1044.8,2039.3Z" fill="#fff"/><path d="M1099.3,2041c-.2-4.2-.5-9.4-.5-13.1h-.1c-1.1,3.5-2.3,7.4-3.8,11.6l-5.4,14.7h-3l-5-14.5c-1.4-4.3-2.6-8.2-3.4-11.8h-.1c-.1,3.8-.3,8.9-.6,13.5l-.8,13h-3.8l2.1-30.4h5.1l5.2,14.7c1.2,3.7,2.2,7.1,3,10.3h.1c.8-3.1,1.9-6.5,3.3-10.3l5.4-14.7h5l1.9,30.4H1100Z" fill="#fff"/><path d="M1114.5,2044.8l-3.2,9.6h-4.1l10.4-30.4h4.7l10.4,30.4h-4.2l-3.2-9.6Zm10-3-3-8.8a48.4,48.4,0,0,1-1.6-5.6h-.1c-.5,1.8-.9,3.7-1.6,5.6l-2.9,8.8Z" fill="#fff"/><path d="M1149.7,2030.8h-7.8V2024h23.9v6.8h-7.9v23.6h-8.2Z" fill="#fff"/><path d="M1169.5,2024.4a62.4,62.4,0,0,1,9.9-.7c4.7,0,8,.7,10.3,2.4a8,8,0,0,1,3,6.6,8.3,8.3,0,0,1-5.2,7.4h0c2,.9,3.1,2.9,3.9,5.5s1.9,7.5,2.5,8.7h-8.4a45.8,45.8,0,0,1-2.1-7c-.8-3.6-1.9-4.4-4.5-4.4h-1.3v11.4h-8.1Zm8.1,12.7h2.2c3,0,4.8-1.5,4.8-3.7s-1.5-3.6-4.2-3.6a8.7,8.7,0,0,0-2.8.2Z" fill="#fff"/><path d="M1205.9,2047.4l-1.7,7h-8.5l8.9-30.4h10.8l9.1,30.4h-8.8l-2-7Zm6.9-30.8,4,5.7h-4.9l-1.9-2.7h0l-1.8,2.7h-5l4-5.7Zm-.2,24.8-1.4-5.6c-.4-1.7-1-4.2-1.5-5.9h-.1c-.4,1.7-.9,4.3-1.3,6l-1.3,5.5Zm5.6-28.1,2.8,5.3h-4l-5.5-5.3Z" fill="#fff"/><path d="M1228.4,2054.4V2024h9.6l4.9,9.3a88.3,88.3,0,0,1,4.7,10.7h.2a104.6,104.6,0,0,1-.7-12.9V2024h7.5v30.4H1246l-5.2-10.1c-1.7-3.2-3.6-7.3-5.1-11h-.2c.3,4.1.4,8.7.4,13.7v7.4Z" fill="#fff"/><path d="M1274.9,2054.4l-9.7-30.4h9l3.2,11.9c1,3.5,1.8,6.8,2.6,10.7h.1q1.1-5.5,2.4-10.5l3.3-12.1h8.7l-9.9,30.4Z" fill="#fff"/><path d="M1303.5,2047.4l-1.8,7h-8.4l8.8-30.4H1313l9.1,30.4h-8.8l-2-7Zm1.9-31c.1,1,.6,2,2.4,2a2.3,2.3,0,0,0,2.6-2h4c0,3.6-2.1,6.1-6.6,6.1s-6.5-2.5-6.6-6.1Zm4.8,25-1.4-5.5c-.5-1.7-1-4.3-1.5-6h-.1c-.5,1.7-.9,4.3-1.3,6l-1.3,5.5Z" fill="#fff"/><path d="M1326,2054.4V2024h9.6l4.8,9.3a75.2,75.2,0,0,1,4.8,10.7h.2a104.6,104.6,0,0,1-.7-12.9V2024h7.5v30.4h-8.6l-5.2-10.1a101.6,101.6,0,0,1-5.1-11h-.2c.2,4.1.3,8.7.3,13.7v7.4Z" fill="#fff"/><path d="M1371,2030.8h-7.8V2024h23.9v6.8h-7.9v23.6H1371Z" fill="#fff"/><path d="M1399,2024v11.2h9.9V2024h8.2v30.4h-8.2v-12H1399v12h-8.2V2024Z" fill="#fff"/><path d="M1430.9,2024v30.4h-8.2V2024Z" fill="#fff"/><path d="M1455.6,2042.1h-10.9v5.6h12.2v6.7h-20.4V2024h19.8v6.6h-11.6v4.9h10.9Zm-6-25.5,4.5,5.7h-5.5l-2-2.6h-.1l-2,2.6H1439l4.5-5.7Zm-6.6,44.9a3.5,3.5,0,0,1,3.6-3.5,3.3,3.3,0,0,1,3.3,3.5,3.4,3.4,0,0,1-3.4,3.5A3.5,3.5,0,0,1,1443,2061.5Z" fill="#fff"/><path d="M1461.4,2054.4V2024h9.7l4.8,9.3a88.3,88.3,0,0,1,4.8,10.7h.1q-.6-6-.6-12.9V2024h7.4v30.4h-8.5l-5.2-10.1a101.6,101.6,0,0,1-5.1-11h-.2c.2,4.1.3,8.7.3,13.7v7.4Z" fill="#fff"/></g><rect x="3039.3" y="2011.4" width="535.2" height="56.33" fill="#6d6e71"/><g opacity="0.6"><path d="M3079.8,2027.3h-9.3V2024h22.6v3.3h-9.3v27.1h-4Z" fill="#fff"/><path d="M3121.3,2038.9c0,10.4-6.4,16-14.2,16s-13.7-6.3-13.7-15.5,6-16,14.1-16S3121.3,2029.8,3121.3,2038.9Zm-23.7.4c0,6.6,3.5,12.4,9.8,12.4s9.7-5.7,9.7-12.6-3.1-12.5-9.7-12.5S3097.6,2032.7,3097.6,2039.3Z" fill="#fff"/><path d="M3152.1,2041c-.3-4.2-.5-9.4-.5-13.1h-.1c-1.1,3.5-2.3,7.4-3.9,11.6l-5.4,14.7h-2.9l-5-14.5c-1.5-4.3-2.6-8.2-3.5-11.8h-.1c-.1,3.8-.3,8.9-.6,13.5l-.8,13h-3.7l2.1-30.4h5l5.2,14.7c1.3,3.7,2.3,7.1,3.1,10.3h.1c.8-3.1,1.9-6.5,3.2-10.3l5.5-14.7h5l1.9,30.4h-3.9Z" fill="#fff"/><path d="M3167.2,2044.8l-3.2,9.6h-4l10.4-30.4h4.7l10.4,30.4h-4.2l-3.3-9.6Zm10-3-3-8.8c-.7-2-1.1-3.8-1.6-5.6h-.1c-.4,1.8-.9,3.7-1.5,5.6l-3,8.8Z" fill="#fff"/><path d="M3202.5,2030.8h-7.8V2024h23.8v6.8h-7.9v23.6h-8.1Z" fill="#fff"/><path d="M3222.3,2024.4a61,61,0,0,1,9.8-.7c4.7,0,8,.7,10.4,2.4a7.9,7.9,0,0,1,2.9,6.6,8.1,8.1,0,0,1-5.2,7.4h0c2,.9,3.2,2.9,3.9,5.5s1.9,7.5,2.5,8.7h-8.3a29.9,29.9,0,0,1-2.1-7c-.8-3.6-2-4.4-4.5-4.4h-1.3v11.4h-8.1Zm8.1,12.7h2.1c3.1,0,4.8-1.5,4.8-3.7s-1.4-3.6-4.2-3.6a8,8,0,0,0-2.7.2Z" fill="#fff"/><path d="M3258.6,2047.4l-1.7,7h-8.4l8.8-30.4h10.9l9.1,30.4h-8.9l-1.9-7Zm6.9-30.8,4.1,5.7h-5l-1.8-2.7h-.1l-1.8,2.7H3256l3.9-5.7Zm-.1,24.8-1.4-5.6c-.5-1.7-1.1-4.2-1.5-5.9h-.1c-.5,1.7-.9,4.3-1.4,6l-1.3,5.5Zm5.5-28.1,2.9,5.3h-4.1l-5.5-5.3Z" fill="#fff"/><path d="M3281.1,2054.4V2024h9.7l4.8,9.3a88.3,88.3,0,0,1,4.8,10.7h.1q-.6-6-.6-12.9V2024h7.5v30.4h-8.6l-5.2-10.1a101.6,101.6,0,0,1-5.1-11h-.2c.2,4.1.3,8.7.3,13.7v7.4Z" fill="#fff"/><path d="M3327.6,2054.4,3318,2024h8.9l3.3,11.9c.9,3.5,1.7,6.8,2.5,10.7h.1c.7-3.7,1.6-7.2,2.5-10.5l3.3-12.1h8.7l-10,30.4Z" fill="#fff"/><path d="M3356.2,2047.4l-1.7,7H3346l8.9-30.4h10.8l9.1,30.4H3366l-1.9-7Zm1.9-31a2.1,2.1,0,0,0,2.4,2,2.4,2.4,0,0,0,2.7-2h4c-.1,3.6-2.1,6.1-6.6,6.1s-6.6-2.5-6.7-6.1Zm4.8,25-1.4-5.5c-.4-1.7-1-4.3-1.5-6h-.1c-.4,1.7-.9,4.3-1.3,6l-1.3,5.5Z" fill="#fff"/><path d="M3378.7,2054.4V2024h9.6l4.9,9.3a88.3,88.3,0,0,1,4.8,10.7h.1q-.6-6-.6-12.9V2024h7.4v30.4h-8.6l-5.2-10.1c-1.6-3.2-3.6-7.3-5.1-11h-.1c.2,4.1.3,8.7.3,13.7v7.4Z" fill="#fff"/><path d="M3423.7,2030.8H3416V2024h23.8v6.8h-7.9v23.6h-8.2Z" fill="#fff"/><path d="M3451.8,2024v11.2h9.9V2024h8.1v30.4h-8.1v-12h-9.9v12h-8.2V2024Z" fill="#fff"/><path d="M3483.6,2024v30.4h-8.2V2024Z" fill="#fff"/><path d="M3508.3,2042.1h-10.9v5.6h12.3v6.7h-20.5V2024H3509v6.6h-11.6v4.9h10.9Zm-6-25.5,4.5,5.7h-5.5l-2-2.6h-.1l-2,2.6h-5.4l4.4-5.7Zm-6.6,44.9a3.5,3.5,0,0,1,3.6-3.5,3.4,3.4,0,0,1,3.4,3.5,3.5,3.5,0,0,1-3.4,3.5A3.6,3.6,0,0,1,3495.7,2061.5Z" fill="#fff"/><path d="M3514.2,2054.4V2024h9.6l4.8,9.3a75.2,75.2,0,0,1,4.8,10.7h.2a104.6,104.6,0,0,1-.7-12.9V2024h7.5v30.4h-8.6l-5.2-10.1a101.6,101.6,0,0,1-5.1-11h-.2c.2,4.1.3,8.7.3,13.7v7.4Z" fill="#fff"/></g><rect x="964.7" y="3698.4" width="535.2" height="56.33" fill="#6d6e71"/><g opacity="0.6"><path d="M1048,3731.9l-3.2,9.6h-4l10.4-30.5h4.7l10.4,30.5h-4.2l-3.3-9.6Zm10-3.1-3-8.7c-.7-2-1.1-3.8-1.6-5.6h-.1a56.2,56.2,0,0,1-1.5,5.5l-3,8.8Z" fill="#fff"/><path d="M1080.3,3741.5V3711h4.4l9.7,15.4a91.4,91.4,0,0,1,5.4,9.9h.1c-.3-4.1-.4-7.8-.4-12.5V3711h3.7v30.5h-4l-9.7-15.5a84.8,84.8,0,0,1-5.6-10.1h-.1c.2,3.9.2,7.5.2,12.6v13Z" fill="#fff"/><path d="M1125.8,3727.2H1114v11h13.2v3.3H1110V3711h16.5v3.3H1114v9.7h11.8Zm-6.1-22.9,4.8,5.1h-3.4l-2.8-3.1h-.1l-2.9,3.1h-3.2l4.6-5.1Z" fill="#fff"/><path d="M1141.2,3711h8.2v23.7h11.7v6.8h-19.9Z" fill="#fff"/><path d="M1184.2,3729.2h-10.9v5.6h12.2v6.7h-20.4V3711h19.8v6.7h-11.6v4.9h10.9Zm-5.8-25.5,4.5,5.7h-5.5l-2-2.7h-.1l-2,2.7h-5.5l4.5-5.7Z" fill="#fff"/><path d="M1203.2,3717.9h-7.8V3711h23.9v6.9h-7.9v23.6h-8.2Z" fill="#fff"/><path d="M1231.2,3711v11.3h9.9V3711h8.2v30.5h-8.2v-12.1h-9.9v12.1H1223V3711Z" fill="#fff"/><path d="M1263.1,3711v30.5h-8.2V3711Zm-7.6,37.6a3.5,3.5,0,0,1,3.6-3.5,3.4,3.4,0,0,1,3.4,3.5,3.5,3.5,0,0,1-7,0Z" fill="#fff"/><path d="M1281.8,3717.9h-7.7V3711h23.8v6.9H1290v23.6h-8.2Z" fill="#fff"/><path d="M1309.9,3711v11.3h9.9V3711h8.2v30.5h-8.2v-12.1h-9.9v12.1h-8.2V3711Z" fill="#fff"/><path d="M1341.6,3734.4l-1.8,7.1h-8.4l8.8-30.5h10.9l9.1,30.5h-8.8l-2-7.1Zm4.2-30.7,3.6,5.6h-6.5l-5.4-5.6Zm2.5,24.7-1.4-5.4c-.5-1.7-1.1-4.3-1.5-6h-.1c-.5,1.7-.9,4.3-1.3,6l-1.4,5.4Z" fill="#fff"/><path d="M1364.1,3741.5V3711h9.6l4.8,9.4a75.2,75.2,0,0,1,4.8,10.7h.2a105.7,105.7,0,0,1-.7-12.9V3711h7.5v30.5h-8.6l-5.2-10.1a101.6,101.6,0,0,1-5.1-11h-.2c.2,4.1.3,8.7.3,13.6v7.5Z" fill="#fff"/><path d="M1404.1,3711v11.3h9.9V3711h8.2v30.5H1414v-12.1h-9.9v12.1h-8.2V3711Z" fill="#fff"/></g><rect x="1607.4" y="4517.7" width="535.2" height="56.33" transform="translate(-2671 6420.8) rotate(-90)" fill="#6d6e71"/><g opacity="0.6"><path d="M1877.5,4768.6c-4.2.2-9.4.5-13.1.5h0c3.5,1,7.3,2.3,11.5,3.8l14.8,5.4v3l-14.5,4.9a106.8,106.8,0,0,1-11.8,3.5h0l13.4.6,13.1.8v3.8l-30.5-2.2v-5l14.8-5.2,10.2-3.1h0c-3-.9-6.4-1.9-10.2-3.3l-14.8-5.4v-5l30.5-1.9v3.8Z" fill="#fff"/><path d="M1860.4,4754h30.5v3.9h-30.5Z" fill="#fff"/><path d="M1890,4725.9a19.7,19.7,0,0,1,1.4,8c0,8.6-5.4,15-15.5,15s-16-6.5-16-15.9a16.4,16.4,0,0,1,1.4-7.2l3.2,1a13.8,13.8,0,0,0-1.3,6.1c0,7.1,4.6,11.9,12.6,11.9s12.3-4.3,12.3-11.7a15.3,15.3,0,0,0-1.3-6.5Z" fill="#fff"/><path d="M1881.3,4715.8l9.6,3.1v4.1l-30.5-10.4v-4.7l30.5-10.4v4.2l-9.6,3.3Zm-3.1-10.1-8.7,3.1c-2,.7-3.8,1.1-5.6,1.6h0l5.5,1.6,8.8,3Z" fill="#fff"/><path d="M1876.6,4677.3v11.8h11v-13.2h3.3v17.2h-30.5v-16.5h3.3v12.5h9.7v-11.8Z" fill="#fff"/><path d="M1890.9,4653.5h-30.5v-9.6l9.4-4.8a75.2,75.2,0,0,1,10.7-4.8h0c-4.1.4-8.3.6-12.9.6h-7.2v-7.5h30.5v8.6l-10.1,5.2a101.6,101.6,0,0,1-11,5.1v.2c4.1-.2,8.7-.3,13.6-.3h7.5Z" fill="#fff"/><path d="M1889.5,4595.3a35.3,35.3,0,0,1,1.7,10.5c0,6-1.5,10-4.1,12.8s-6.6,4.3-11,4.3c-10.6,0-16-7.9-16-17.8a21.4,21.4,0,0,1,1.5-8.8l6.5,1.7a17.7,17.7,0,0,0-1.2,7.2c0,5,2.6,9.2,8.8,9.2s9-3.7,9-8.7a8.4,8.4,0,0,0-.3-2.6h-5.2v4.1h-6.4v-11.9Z" fill="#fff"/><path d="M1860.4,4582h17.4c4.6,0,7.1-1.5,7.1-4.8s-2.3-4.8-7.1-4.8h-17.4v-8.2h16.9c9.4,0,14.1,4.7,14.1,13.3s-4.6,12.7-14.3,12.7h-16.7Z" fill="#fff"/><path d="M1890.9,4551.6h-12.3l-18.2,9.6v-9.4l6.9-2.6,5.7-2.1h0l-5.7-2-6.9-2.5v-9.2l17.9,10h12.6Z" fill="#fff"/><path d="M1852.4,4527.2c-3.5.1-5.5-1.5-5.5-4a6.2,6.2,0,0,1,.8-2.9,5.2,5.2,0,0,0,.8-2c0-.8-.4-1-1.8-1.1v-3.6c4-.2,5.6,1.4,5.6,3.9a6.1,6.1,0,0,1-1,3.2,3.5,3.5,0,0,0-.6,1.7c0,.6.6,1,1.7,1.1Zm.7-9.7,5.7-4.4v5.4l-2.7,2.1h0l2.7,2v5.4l-5.7-4.5Zm25.5-5.4v11h5.6v-12.3h6.7v20.4h-30.5v-19.8h6.7v11.7h4.9v-11Z" fill="#fff"/><path d="M1890.9,4506.3h-30.5v-9.6l9.4-4.9a107.1,107.1,0,0,1,10.7-4.8h0a106.4,106.4,0,0,1-12.9.6h-7.2v-7.4h30.5v8.6l-10.1,5.2c-3.2,1.6-7.3,3.6-11,5.1h0c4.1-.2,8.7-.3,13.6-.3h7.5Z" fill="#fff"/><path d="M1860.4,4457.3h11.3v-9.9h-11.3v-8.2h30.5v8.2h-12.1v9.9h12.1v8.2h-30.5Z" fill="#fff"/><path d="M1860.4,4425.5h17.4c4.6,0,7.1-1.6,7.1-4.8s-2.3-4.8-7.1-4.8h-17.4v-8.2h16.9c9.4,0,14.1,4.7,14.1,13.2s-4.6,12.8-14.3,12.8h-16.7Z" fill="#fff"/><path d="M1890.9,4395h-12.3l-18.2,9.6v-9.4l6.9-2.5,5.7-2.1h0l-5.7-1.9-6.9-2.5v-9.3l17.9,10h12.6Z" fill="#fff"/><path d="M1880,4338.9c-3.5.2-7.5.2-12.3.2h0c4,1,8.6,2.3,11.9,3.3l10.7,3v6.4l-10.6,2.5c-3.3.8-7.8,1.7-12,2.4h0l12.3.5,10.9.5v7.5l-30.5-1.9v-11l8.2-2c3.4-.9,7.5-1.8,11.2-2.4h0c-3.7-.9-8-1.9-11.2-2.8l-8.2-2.3v-10.7l30.5-1.5v7.9Z" fill="#fff"/><path d="M1858.6,4320.9c-4.3.1-6.2-1.4-6.2-3.7a5.3,5.3,0,0,1,.9-3,4,4,0,0,0,.9-1.9c0-.7-.5-1-2-1.2v-3.5c4.5-.1,6.1,1.3,6.1,3.8a6,6,0,0,1-.8,3c-.4.8-.8,1.2-.8,1.8s.6,1,1.9,1.1Zm32.3-2.4h-12.3l-18.2,9.6v-9.3l6.9-2.6,5.7-2.1h0l-5.7-1.9-6.9-2.5v-9.2l17.9,10h12.6Z" fill="#fff"/></g><rect x="2398.3" y="4517.7" width="535.2" height="56.33" transform="translate(-1880 7211.8) rotate(-90)" fill="#6d6e71"/><g opacity="0.6"><path d="M2651.8,4774.5a47.6,47.6,0,0,1-.6-7.6c0-3.9.9-6.7,2.5-8.5a8.3,8.3,0,0,1,6.4-2.7,8.7,8.7,0,0,1,6.5,2.4c2.2,2.1,3.4,5.4,3.4,9.3a14.8,14.8,0,0,1-.3,3.1h12.2v4Zm14.7-4a13.9,13.9,0,0,0,.3-3.2c0-4.8-2.4-7.7-6.5-7.7s-6,2.9-6,7.2a15.2,15.2,0,0,0,.3,3.7Z" fill="#fff"/><path d="M2651.4,4746.5h12.8v-14.7h-12.8v-4h30.5v4h-14.3v14.7h14.3v4h-30.5Z" fill="#fff"/><path d="M2672.3,4716l9.6,3.2v4.1l-30.5-10.4v-4.7l30.5-10.4v4.2l-9.6,3.2Zm-3.1-10-8.7,3c-2,.7-3.8,1.1-5.6,1.6h0a56.2,56.2,0,0,1,5.5,1.5l8.8,3Z" fill="#fff"/><path d="M2666.3,4667.9c10.5,0,16.1,6.4,16.1,14.2s-6.3,13.7-15.5,13.7-16-6-16-14.1S2657.3,4667.9,2666.3,4667.9Zm.5,23.7c6.5,0,12.4-3.5,12.4-9.7s-5.8-9.8-12.7-9.8-12.4,3.2-12.4,9.7S2660.1,4691.6,2666.8,4691.6Z" fill="#fff"/><path d="M2651.4,4653.3v-4h27.2v-13h3.3v17Z" fill="#fff"/><path d="M2644.5,4620.1l5.2-4.7v3.3l-3.2,2.9h0l3.2,2.8v3.3l-5.2-4.7Zm21.8-12.5c10.5,0,16.1,6.4,16.1,14.2s-6.3,13.7-15.5,13.7-16-6-16-14.1S2657.3,4607.6,2666.3,4607.6Zm.5,23.7c6.5,0,12.4-3.5,12.4-9.7s-5.8-9.8-12.7-9.8-12.4,3.2-12.4,9.7S2660.1,4631.3,2666.8,4631.3Z" fill="#fff"/><path d="M2651.4,4585.3v-8.2h23.7v-11.7h6.8v19.9Z" fill="#fff"/><path d="M2644.1,4548.1l5.7-4.5v5.5l-2.7,2h0l2.7,2v5.5l-5.7-4.5Zm25.5-5.8v10.9h5.6V4541h6.7v20.4h-30.5v-19.8h6.7v11.6h4.9v-10.9Z" fill="#fff"/><path d="M2651.8,4527.5a72.3,72.3,0,0,1-.6-9.6c0-4.4.3-7,1.5-9.3a6.7,6.7,0,0,1,6.3-4.1c2.5,0,5,1.4,6.3,4.9h.1c1.1-3.7,3.8-5.9,7.4-5.9a8.2,8.2,0,0,1,6.7,3.4c1.7,2.3,2.7,6.1,2.7,12.6a48,48,0,0,1-.5,8Zm11.3-8.1v-1.6c0-3.5-1.2-5.2-3.1-5.2s-2.9,1.4-2.9,4.1a8.7,8.7,0,0,0,.2,2.7Zm13.1,0a14.8,14.8,0,0,0,.1-2.3c0-2.7-1.1-5.1-3.8-5.1s-3.6,2.4-3.6,5.5v1.9Z" fill="#fff"/><path d="M2649.3,4488.6c-2.1-.7-2.4-2.2-3.9-2.2a1.3,1.3,0,0,0-1.3,1.3c0,.8.9,1.6,1.5,1.9l-1.5,2.5a6.3,6.3,0,0,1-3.8-6c0-2.6,1.9-4.7,4-4.7s3.4,2.3,5.8,3.5Zm25.5,2.6,7.1,1.7v8.5l-30.5-8.8v-10.9l30.5-9.1v8.8l-7.1,1.9Zm-6-6.7-5.4,1.4-6.1,1.5h0c1.8.5,4.3.9,6.1,1.3l5.4,1.3Z" fill="#fff"/><path d="M2666.3,4441.4c9.8,0,16.1,5.8,16.1,15.2s-7.1,14.7-15.6,14.7-15.9-5.8-15.9-15.2S2658.2,4441.4,2666.3,4441.4Zm.4,21.2c5.7,0,9.2-2.4,9.2-6.4s-3.8-6.2-9.3-6.2-9.3,2.3-9.3,6.3S2661,4462.6,2666.7,4462.6Z" fill="#fff"/><path d="M2658.3,4423.9v7.7h-6.9v-23.8h6.9v7.9h23.6v8.2Z" fill="#fff"/><path d="M2651.4,4395.8h30.5v8.2h-30.5Zm37.6,7.6a3.5,3.5,0,1,1,3.4-3.5A3.5,3.5,0,0,1,2689,4403.4Z" fill="#fff"/><path d="M2681.9,4390.2h-30.5v-9.6l9.4-4.8a79.2,79.2,0,0,1,10.6-4.8h0a127.9,127.9,0,0,1-12.8.6h-7.2V4364h30.5v8.6l-10.1,5.2a111.3,111.3,0,0,1-11,5.1v.2c4.1-.2,8.7-.3,13.6-.3h7.5Z" fill="#fff"/><path d="M2651.4,4350.2h11.3v-9.9h-11.3v-8.2h30.5v8.2h-12.1v9.9h12.1v8.2h-30.5Z" fill="#fff"/></g><rect x="3028.4" y="4523.8" width="535.2" height="44.12" transform="translate(-1249.9 7841.9) rotate(-90)" fill="#6d6e71"/><g opacity="0.6"><path d="M3307.9,4633.5a13.8,13.8,0,0,1,1,5.9c0,8.8-5.5,12.7-11.8,12.7-8.3,0-12.5-6.1-12.5-13.2a14,14,0,0,1,1-5.8l5,1.2a11.9,11.9,0,0,0-.8,4.4c0,3.6,2.1,6.7,6.9,6.7s7-2.5,7-6.9a12.7,12.7,0,0,0-.7-4.2Z" fill="#fff"/><path d="M3281.4,4615.4c-1.4-.4-1.8-1.7-2.8-1.7a1.1,1.1,0,0,0-1.1,1c0,.7.8,1.3,1.3,1.5l-1,1.8a4.5,4.5,0,0,1-2.8-4.2,3.1,3.1,0,0,1,2.9-3.3c2,0,2.3,1.7,4.1,2.6Zm-2.1,2.5,4.4-3.1v3.9l-2.1,1.4h0l2.1,1.4v3.9l-4.4-3.1Zm17.2-8.9c7.6,0,12.4,4.6,12.4,11.8s-5.5,11.4-12,11.4-12.4-4.5-12.4-11.8S3290.2,4609,3296.5,4609Zm.2,16.5c4.5,0,7.2-1.9,7.2-5s-3-4.8-7.2-4.8-7.2,1.8-7.2,4.9S3292.4,4625.5,3296.7,4625.5Z" fill="#fff"/><path d="M3308.5,4605.7H3285v-7.5l7.2-3.7a57.7,57.7,0,0,1,8.3-3.7h0c-3.2.3-6.4.4-10,.4H3285v-5.7h23.5v6.6l-7.8,4c-2.5,1.3-5.7,2.9-8.5,4h0l10.6-.2h5.7Z" fill="#fff"/><path d="M3307.5,4560.6a32.6,32.6,0,0,1,1.3,8.1c0,4.6-1.2,7.8-3.2,9.9a11.5,11.5,0,0,1-8.5,3.4c-8.2,0-12.4-6.2-12.4-13.8a16.4,16.4,0,0,1,1.2-6.8l5,1.2a13.3,13.3,0,0,0-1,5.6c0,3.9,2.1,7.1,6.8,7.1s7-2.8,7-6.6a8.1,8.1,0,0,0-.2-2h-4.1v3.1h-4.9v-9.2Z" fill="#fff"/><path d="M3285.3,4549.7a46.9,46.9,0,0,1-.5-7.8c0-3.3.6-5.8,1.9-7.4a6.9,6.9,0,0,1,5.6-2.7,7.5,7.5,0,0,1,5.8,2.3c1.7,1.9,2.5,4.6,2.5,7.8,0,.6-.1,1.2-.1,1.6h8v6.2Zm10.4-6.2c0-.4.1-.8.1-1.5,0-2.4-1.3-4-3.3-4s-3,1.2-3,3.6a7.8,7.8,0,0,0,.2,1.9Z" fill="#fff"/><path d="M3285,4522.3h8.7v-7.6H3285v-6.4h23.5v6.4h-9.3v7.6h9.3v6.4H3285Z" fill="#fff"/><path d="M3285,4497.7h13.4c3.5,0,5.5-1.2,5.5-3.7s-1.8-3.7-5.5-3.7H3285v-6.4h13c7.2,0,10.9,3.7,10.9,10.3s-3.5,9.8-11.1,9.8H3285Zm29-1a2.7,2.7,0,0,1-2.7-2.8,2.7,2.7,0,1,1,2.7,2.8Z" fill="#fff"/></g><rect x="3038.6" y="3698.4" width="535.2" height="56.33" fill="#6d6e71"/><g opacity="0.6"><path d="M3121.9,3731.9l-3.2,9.6h-4l10.4-30.5h4.7l10.4,30.5H3136l-3.3-9.6Zm10-3.1-3-8.7c-.7-2-1.1-3.8-1.6-5.6h-.1a56.2,56.2,0,0,1-1.5,5.5l-3,8.8Z" fill="#fff"/><path d="M3154.2,3741.5V3711h4.4l9.7,15.4a91.4,91.4,0,0,1,5.4,9.9h.1c-.3-4.1-.4-7.8-.4-12.5V3711h3.7v30.5h-4l-9.7-15.5a84.8,84.8,0,0,1-5.6-10.1h-.1c.2,3.9.2,7.5.2,12.6v13Z" fill="#fff"/><path d="M3199.7,3727.2h-11.8v11h13.2v3.3h-17.2V3711h16.5v3.3h-12.5v9.7h11.8Zm-6.1-22.9,4.8,5.1H3195l-2.8-3.1h-.1l-2.9,3.1H3186l4.6-5.1Z" fill="#fff"/><path d="M3215.1,3711h8.2v23.7H3235v6.8h-19.9Z" fill="#fff"/><path d="M3258.1,3729.2h-10.9v5.6h12.2v6.7H3239V3711h19.8v6.7h-11.6v4.9h10.9Zm-5.8-25.5,4.5,5.7h-5.5l-2-2.7h-.1l-2,2.7h-5.5l4.5-5.7Z" fill="#fff"/><path d="M3277.1,3717.9h-7.8V3711h23.9v6.9h-7.9v23.6h-8.2Z" fill="#fff"/><path d="M3305.1,3711v11.3h9.9V3711h8.2v30.5H3315v-12.1h-9.9v12.1H3297V3711Z" fill="#fff"/><path d="M3337,3711v30.5h-8.2V3711Zm-7.6,37.6a3.5,3.5,0,0,1,3.6-3.5,3.4,3.4,0,0,1,3.4,3.5,3.5,3.5,0,0,1-7,0Z" fill="#fff"/><path d="M3355.8,3717.9H3348V3711h23.8v6.9h-7.9v23.6h-8.1Z" fill="#fff"/><path d="M3383.8,3711v11.3h9.9V3711h8.2v30.5h-8.2v-12.1h-9.9v12.1h-8.2V3711Z" fill="#fff"/><path d="M3415.5,3734.4l-1.8,7.1h-8.4l8.8-30.5H3425l9.1,30.5h-8.8l-2-7.1Zm4.2-30.7,3.6,5.6h-6.5l-5.4-5.6Zm2.5,24.7-1.4-5.4c-.5-1.7-1-4.3-1.5-6h-.1c-.5,1.7-.9,4.3-1.3,6l-1.4,5.4Z" fill="#fff"/><path d="M3438,3741.5V3711h9.6l4.8,9.4a75.2,75.2,0,0,1,4.8,10.7h.2a105.7,105.7,0,0,1-.7-12.9V3711h7.5v30.5h-8.6l-5.2-10.1a101.6,101.6,0,0,1-5.1-11h-.2c.2,4.1.3,8.7.3,13.6v7.5Z" fill="#fff"/><path d="M3478,3711v11.3h9.9V3711h8.2v30.5h-8.2v-12.1H3478v12.1h-8.2V3711Z" fill="#fff"/></g><polygon points="1918.3 5662.3 1818.3 5662.3 1868.3 5577.6 1918.3 5662.3" fill="#585a5c"/><polygon points="2709.1 5662.3 2609.2 5662.3 2659.1 5577.6 2709.1 5662.3" fill="#585a5c"/><polygon points="3343.1 5662.3 3243.1 5662.3 3293.1 5577.6 3343.1 5662.3" fill="#585a5c"/></g><g id="Nha_Trung_Tâm" data-name="Nha Trung Tâm"><rect x="2132.1" y="3713.9" width="286.4" height="172.07" fill="#8d5556" stroke="#dca484" stroke-miterlimit="10" stroke-width="1.69"/><polygon points="2132.1 3885.9 2210.6 3799.9 2336.9 3799.9 2418.4 3885.9 2132.1 3885.9" fill="#8d5556" stroke="#dca484" stroke-miterlimit="10" stroke-width="1.69"/><path d="M2132.1,3713.9c4,0,78.5,86,78.5,86l-78.5,86Z" fill="#8d5556" stroke="#dca484" stroke-miterlimit="10" stroke-width="1.69"/><polygon points="2418.4 3713.9 2336.9 3799.9 2418.4 3885.9 2418.4 3713.9" fill="#8d5556" stroke="#dca484" stroke-miterlimit="10" stroke-width="1.69"/></g>

[REPLACE_ME]

</svg>