<svg xmlns="http://www.w3.org/2000/svg" xmlns:xlink="http://www.w3.org/1999/xlink" version="1.1" x="0px" y="0px" viewBox="0 0 3142.47 2276.63" style="enable-background:new 0 0 3142.47 2276.63;" xml:space="preserve">
    <style type="text/css">
        .st0{fill:#5ABA7B;}
        .st1{opacity:0.48;fill:#24B34B;stroke:#224C1C;stroke-width:5;stroke-miterlimit:10;}
        .st2{opacity:0.22;fill:#231F20;stroke:#231F20;stroke-width:0.2833;stroke-miterlimit:10;stroke-dasharray:5.6656;}
        .st3{opacity:0.22;fill:#231F20;stroke:#231F20;stroke-width:0.2749;stroke-miterlimit:10;stroke-dasharray:5.4987;}
        .st4{opacity:0.22;fill:#231F20;stroke:#231F20;stroke-width:0.2551;stroke-miterlimit:10;stroke-dasharray:5.1028;}
        .st5{fill:#E9E5DC;}
        .st6{fill:#6D6E71;}
        .st7{fill:none;stroke:#504A4B;stroke-width:2;stroke-miterlimit:10;}
        .st8{fill:none;stroke:#504A4B;stroke-width:2;stroke-miterlimit:10;stroke-dasharray:4.9971,4.9971;}
        .st9{fill:none;stroke:#231F20;stroke-width:0.25;stroke-miterlimit:10;}
        .st10{fill:none;stroke:#231F20;stroke-width:0.25;stroke-miterlimit:10;stroke-dasharray:4.9971,4.9971;}
        .st11{fill:none;stroke:#504A4B;stroke-width:2;stroke-miterlimit:10;stroke-dasharray:4.9965,4.9965;}
        .st12{fill:none;stroke:#231F20;stroke-width:0.25;stroke-miterlimit:10;stroke-dasharray:4.9965,4.9965;}
        .st13{fill:none;stroke:#504A4B;stroke-width:2;stroke-miterlimit:10;stroke-dasharray:5;}
        .st14{opacity:0.54;}
        .st15{fill:#FFFFFF;}
        .st16{font-family:'MyriadPro-Regular';}
        .st17{font-size:28.5085px;}
        .st18{font-family:'MyriadPro-Black';}
        .st19{opacity:0.6;}
        .st20{opacity:0.39;}
        .st21{opacity:0.44;}
        .st22{opacity:0.22;fill:#231F20;stroke:#231F20;stroke-width:0.25;stroke-miterlimit:10;stroke-dasharray:5;}
        .st23{opacity:0.34;fill:#231F20;stroke:#231F20;stroke-width:0.25;stroke-miterlimit:10;stroke-dasharray:5;}
        .st24{font-size:19.2695px;}
        .st25{fill:#ED1C29;}
        .st26{fill:#949899;stroke:#231F20;stroke-width:0.0627;stroke-miterlimit:10;}
        .st27{fill:#FFFFFF;stroke:#221F1F;stroke-width:0.0209;stroke-miterlimit:10;}
        .st28{fill:#221F1F;}
        .st29{fill:#DBDCDD;stroke:#221F1F;stroke-width:0.0209;stroke-miterlimit:10;}
        .st30{fill:none;stroke:#221F1F;stroke-width:0.0209;stroke-miterlimit:10;}
        .st31{fill:#231F20;}
        .st32{fill:#8A8C8F;stroke:#221F1F;stroke-width:0.0209;stroke-miterlimit:10;}
        .st33{font-family:'MyriadPro-It';}
        .st34{font-size:0.8642px;}
        .st35{opacity:0.22;fill:#231F20;stroke:#231F20;stroke-width:0.2576;stroke-miterlimit:10;stroke-dasharray:5.1518;}
        .st36{opacity:0.22;fill:#231F20;stroke:#231F20;stroke-width:0.232;stroke-miterlimit:10;stroke-dasharray:4.64;}
        .st37{opacity:0.22;fill:#231F20;stroke:#231F20;stroke-width:0.2646;stroke-miterlimit:10;stroke-dasharray:5.2914;}
        .st38{fill:#696D6E;stroke:#231F20;stroke-width:0.0627;stroke-miterlimit:10;}
        .st39{fill:#797C7E;stroke:#221F1F;stroke-width:0.0209;stroke-miterlimit:10;}
        .st40{fill:#949899;stroke:#231F20;stroke-width:0.038;stroke-miterlimit:10;}
        .st41{fill:#FFFFFF;stroke:#221F1F;stroke-width:0.0139;stroke-miterlimit:10;}
        .st42{fill:#DBDCDD;stroke:#221F1F;stroke-width:0.0139;stroke-miterlimit:10;}
        .st43{fill:none;stroke:#221F1F;stroke-width:0.0139;stroke-miterlimit:10;}
        .st44{fill:#8A8C8F;stroke:#221F1F;stroke-width:0.0139;stroke-miterlimit:10;}
        .st45{font-size:0.576px;}
        .st46{fill:#949899;stroke:#231F20;stroke-width:0.0524;stroke-miterlimit:10;}
        .st47{fill:#FFFFFF;stroke:#221F1F;stroke-width:0.0192;stroke-miterlimit:10;}
        .st48{fill:#DBDCDD;stroke:#221F1F;stroke-width:0.0192;stroke-miterlimit:10;}
        .st49{fill:none;stroke:#221F1F;stroke-width:0.0192;stroke-miterlimit:10;}
        .st50{fill:#8A8C8F;stroke:#221F1F;stroke-width:0.0192;stroke-miterlimit:10;}
        .st51{font-size:0.7952px;}
        .st52{fill:#231F20;stroke:#231F20;stroke-width:0.0627;stroke-miterlimit:10;}
    </style>
    <g id="Khu_A">
    
    
    
    
    
    
    
    
    <path class="st5" d="M2674.06,480.21V354.59H1317.79c-37.7,0-68.27-30.56-68.27-68.27v-39.01h-71.22v39.01   c0,37.7-30.56,68.27-68.27,68.27H818.39c-37.7,0-68.27-30.56-68.27-68.27v-39.01H624.51v39.01c0,37.7-30.56,68.27-68.27,68.27   H430.3v125.62h125.94c37.7,0,68.27,30.56,68.27,68.27v1395.02c0,37.7-30.56,68.27-68.27,68.27H430.58v125.62h193.93h125.62h428.18   h71.22h1417.11v-125.62H1317.79c-37.7,0-68.27-30.56-68.27-68.27V548.48c0-37.7,30.56-68.27,68.27-68.27H2674.06z M1110.04,2011.76   H818.39c-37.7,0-68.27-30.56-68.27-68.27V548.48c0-37.7,30.56-68.27,68.27-68.27h291.65c37.7,0,68.27,30.56,68.27,68.27v1395.02   C1178.3,1981.2,1147.74,2011.76,1110.04,2011.76z"/>
    <path class="st6" d="M430.58,2128.87v-108.61h125.66c42.33,0,76.77-34.44,76.77-76.77V548.48c0-42.33-34.44-76.77-76.77-76.77   H430.3V363.1h125.94c42.33,0,76.77-34.44,76.77-76.77v-39.01h108.61v39.01c0,42.33,34.44,76.77,76.77,76.77h291.65   c42.33,0,76.77-34.44,76.77-76.77v-39.01h54.22v39.01c0,42.33,34.44,76.77,76.77,76.77h1356.26v108.61H1317.79   c-42.33,0-76.77,34.44-76.77,76.77v1395.02c0,42.33,34.44,76.77,76.77,76.77h1348.85v108.61H430.58z M818.39,471.71   c-42.33,0-76.77,34.44-76.77,76.77v1395.02c0,42.33,34.44,76.77,76.77,76.77h291.65c42.33,0,76.77-34.44,76.77-76.77V548.48   c0-42.33-34.44-76.77-76.77-76.77H818.39z"/>
    <polygon class="st6" points="398.11,2011.3 398.11,1979.01 350,2074.57 398.11,2170.12 398.11,2137.83 417.22,2137.97    417.22,2074.57 417.22,2011.17  "/>
    <polygon class="st6" points="400.42,351.59 400.42,319.3 352.31,414.85 400.42,510.41 400.42,478.12 419.53,478.25 419.53,414.85    419.53,351.45  "/>
    <polygon class="st6" points="753.4,218.72 785.69,218.72 690.13,170.62 594.58,218.72 626.87,218.72 626.73,237.83 690.13,237.83    753.53,237.83  "/>
    <polygon class="st6" points="1250.07,218.72 1282.36,218.72 1212.76,170.62 1143.25,218.72 1175.54,218.72 1175.41,237.83    1186.81,237.83 1250.21,237.83  "/>
    
    
    <polygon class="st6" points="2711.32,218.72 2743.61,218.72 2674.01,170.62 2604.5,218.72 2636.79,218.72 2636.66,237.83    2648.05,237.83 2711.45,237.83  "/>
    <path class="st5" d="M2644.79,1943.49V548.48c0-42.33-34.44-76.77-76.77-76.77h-58.65v8.5h58.65c37.7,0,68.27,30.56,68.27,68.27   v1395.02c0,37.7-30.56,68.27-68.27,68.27h-58.65v8.5h58.65C2610.35,2020.26,2644.79,1985.83,2644.79,1943.49z"/>
    <path class="st5" d="M2568.02,363.1c42.33,0,76.77-34.44,76.77-76.77v-39.01h-8.5v39.01c0,37.7-30.56,68.27-68.27,68.27h-58.65v8.5   H2568.02z"/>
    <path class="st6" d="M2699,1943.49V548.48V286.33v-39.01h-54.22v39.01c0,42.33-34.44,76.77-76.77,76.77h-58.65v108.61h58.65   c42.33,0,76.77,34.44,76.77,76.77v1395.02c0,42.33-34.44,76.77-76.77,76.77h-58.65v108.61H2699V1943.49z"/>
    <g>
		<g>
        <line class="st7" x1="430.3" y1="414.85" x2="432.8" y2="414.85"/>
        <line class="st8" x1="437.79" y1="414.85" x2="2694" y2="414.85"/>
        <line class="st7" x1="2696.5" y1="414.85" x2="2699" y2="414.85"/>
      </g>
    </g>
    <g>
		<g>
			<line class="st9" x1="430.3" y1="380.06" x2="432.8" y2="380.06"/>
			<line class="st10" x1="437.79" y1="380.06" x2="2694" y2="380.06"/>
			<line class="st9" x1="2696.5" y1="380.06" x2="2699" y2="380.06"/>
		</g>
	</g>
  <g>
		<g>
			<line class="st9" x1="430.3" y1="456.99" x2="432.8" y2="456.99"/>
			<line class="st10" x1="437.79" y1="456.99" x2="2694" y2="456.99"/>
			<line class="st9" x1="2696.5" y1="456.99" x2="2699" y2="456.99"/>
		</g>
	</g>
  <g>
		<g>
			<line class="st7" x1="430.58" y1="2074.57" x2="433.08" y2="2074.57"/>
			<line class="st11" x1="438.07" y1="2074.57" x2="2694" y2="2074.57"/>
			<line class="st7" x1="2696.5" y1="2074.57" x2="2699" y2="2074.57"/>
		</g>
	</g>
  <g>
		<g>
			<line class="st9" x1="430.58" y1="2036.07" x2="433.08" y2="2036.07"/>
			<line class="st12" x1="438.07" y1="2036.07" x2="2694" y2="2036.07"/>
			<line class="st9" x1="2696.5" y1="2036.07" x2="2699" y2="2036.07"/>
		</g>
	</g>
  <g>
		<g>
			<line class="st9" x1="430.58" y1="2113.06" x2="433.08" y2="2113.06"/>
			<line class="st12" x1="438.07" y1="2113.06" x2="2694" y2="2113.06"/>
			<line class="st9" x1="2696.5" y1="2113.06" x2="2699" y2="2113.06"/>
		</g>
	</g>
  <line class="st13" x1="1212.76" y1="255.83" x2="1212.76" y2="2128.87"/>
  <line class="st13" x1="683.74" y1="255.83" x2="683.74" y2="2128.87"/>
  <g>
		<rect x="812.8" y="2055.68" class="st6" width="297.87" height="39.62"/>
		<text transform="matrix(1 0 0 1 838.8663 2082.8472)" class="st14"><tspan x="0" y="0" class="st15 st16 st17">A NÊ</tspan><tspan x="56.27" y="0" class="st15 st18 st17"> LÊ THỊ THÀNH</tspan></text>
	</g>
  <g>
		<rect x="791.07" y="395.04" class="st6" width="337.57" height="39.62"/>
		<g class="st19">
			<text transform="matrix(1 0 0 1 810.7946 422.208)"><tspan x="0" y="0" class="st15 st16 st17">TOMA</tspan><tspan x="74.18" y="0" class="st15 st18 st17"> TRẦN VĂN THIỆN</tspan></text>
		</g>
	</g>
  <rect x="651.57" y="1036.38" class="st6" width="53.29" height="389.41"/>
  <g class="st19">
		<text transform="matrix(0 -1 1 0 690.1322 1406.1362)"><tspan x="0" y="0" class="st15 st16 st17">AN RÊ</tspan><tspan x="71.61" y="0" class="st15 st18 st17"> NGUYÊN KIM THÔNG</tspan></text>
	</g>
  <g>
		<g>
			<text transform="matrix(0 -1 1 0 1231.6792 1266.0098)" class="st15 st18 st24">KHU B</text>
		</g>
		<polygon class="st25" points="1238.66,1223.87 1238.66,1254.26 1252.65,1238.91   "/>
	</g>
  <path class="st0" d="M1249.2,1942.82V546.31c0-36.5,29.59-66.1,66.1-66.1h295.99c36.5,0,66.1,29.59,66.1,66.1v1396.52   c0,36.5-29.59,66.1-66.1,66.1H1315.3C1278.79,2008.92,1249.2,1979.33,1249.2,1942.82z"/>
  <path class="st1" d="M1611.35,1997.58h-296.11c-30.21,0-54.7-24.49-54.7-54.7V549.09c0-30.21,24.49-54.7,54.7-54.7h296.11   c30.21,0,54.7,24.49,54.7,54.7v1393.8C1666.04,1973.09,1641.55,1997.58,1611.35,1997.58z"/>
  <path class="st35" d="M1366.8,1987.31h-51.3c-14.89,0-26.96-12.07-26.96-26.96V533.98c0-13.08,10.6-23.68,23.68-23.68h54.58   V1987.31z"/>
  <rect x="1366" y="510.3" class="st22" width="63.48" height="1477.01"/>
  <rect x="1428.68" y="510.3" class="st36" width="63.48" height="1477.01"/>
  <rect x="1491.36" y="510.3" class="st36" width="63.48" height="1477.01"/>
  <path class="st37" d="M1612.55,1987.31h-58.51V510.3h60.51c12.18,0,22.05,9.87,22.05,22.05v1430.9   C1636.6,1976.54,1625.83,1987.31,1612.55,1987.31z"/>

  [REPLACE_ME]
</g>
</svg>